<svg viewBox="0 0 125 42" xmlns:xlink="http://www.w3.org/1999/xlink" xmlns="http://www.w3.org/2000/svg" width="125" height="42" fill="currentColor"><path d="M14.97 2.3h3.694v.696h-.696q-.182 0-.64.418c-.305.278-.458.496-.458.64v10.608q0 .218.458.64.458.42.64.42h.696v.693h-5.45v-.699h.695q.182 0 .624-.421.44-.42.44-.64V4.385L9.85 16.667 4.733 4.172v10.486q.001.22.437.64c.29.28.502.421.624.421h.692v.693H2.1v-.696h.695q.22 0 .659-.421.438-.42.436-.64V4.053q0-.216-.436-.64-.437-.419-.659-.417H2.1V2.3h4.093l4.243 10.567h.11zm8.776 12.686a3.33 3.33 0 0 0 1.791-.4 3.5 3.5 0 0 0 1.095-1.207h.587a5.3 5.3 0 0 1-1.445 2.375 3.85 3.85 0 0 1-2.686.88 3.72 3.72 0 0 1-3.036-1.392 5.1 5.1 0 0 1-1.133-3.326 4.87 4.87 0 0 1 1.277-3.548 4.13 4.13 0 0 1 3.07-1.316 4.6 4.6 0 0 1 1.828.33c.527.225 1.01.542 1.426.937l-1.332 2.093-.55.034a3.7 3.7 0 0 0-.109-1.872 1.36 1.36 0 0 0-1.463-.823 2.26 2.26 0 0 0-2.012.986 4.63 4.63 0 0 0-.659 2.599 3.9 3.9 0 0 0 .896 2.595 3.07 3.07 0 0 0 2.455 1.055m9.067 1.426H27.29v-.696h.706q.219 0 .658-.421.438-.42.437-.64V4.053q.001-.216-.437-.64c-.293-.28-.521-.417-.658-.417h-.705V2.3h5.522v.696h-.696q-.219 0-.658.418c-.293.278-.437.496-.437.64v5.778L36.067 4.2c.097-.122 0-.352-.256-.693s-.465-.511-.586-.511h-.677V2.3h5.116v.696h-.695c-.344.118-.66.306-.927.552-.49.378-.78.624-.88.715l-3.432 3.69 4.936 6.552c.24.28.516.525.82.73.246.226.54.39.862.478h1.023c.242-.05.462-.178.624-.365q.402-.369.403-.624V8.955q0-.22-.403-.587a1.13 1.13 0 0 0-.624-.365h-.552v-.695h3.254v7.422q0 .256.421.624c.162.177.37.304.602.365h1.136c.122 0 .312-.121.584-.365q.404-.365.402-.624V8.955q0-.22-.403-.587-.401-.365-.583-.365h-.587v-.695h2.89l.365 1.856a16 16 0 0 1 1.59-1.463 3.12 3.12 0 0 1 1.991-.624 2.5 2.5 0 0 1 1.813.733 2.54 2.54 0 0 1 .749 1.9v5.02q0 .256.402.624c.269.247.462.365.584.365h.586v.693h-4.789v-.696h.506a1.14 1.14 0 0 0 .624-.365c.268-.247.402-.452.402-.624V9.832a1.7 1.7 0 0 0-.368-1.133 1.34 1.34 0 0 0-1.095-.44 3.43 3.43 0 0 0-1.994.715q-1.002.711-1.001 1.188v4.568q0 .256.402.624c.163.187.382.315.624.365h.512v.693H37.356l-4.908-7.055-1.426 1.536v3.765q-.001.22.437.64.44.42.658.421h.696zm4.898 15.912-.043-.044q.698.585 1.41 1.17.712.584 1.516 1.136h.84v.73h-1.536c-.625.01-1.245-.1-1.828-.328a5.9 5.9 0 0 1-1.682-1.135 5.45 5.45 0 0 1-1.956 1.263 7.6 7.6 0 0 1-2.649.418 4.74 4.74 0 0 1-3.12-1.151 3.75 3.75 0 0 1-1.391-3.017 4.9 4.9 0 0 1 .624-2.45 5.3 5.3 0 0 1 1.66-1.79 6.6 6.6 0 0 1-.824-1.354 3.9 3.9 0 0 1-.312-1.607 2.96 2.96 0 0 1 .911-2.321 3.58 3.58 0 0 1 2.493-.824 4.5 4.5 0 0 1 1.538.218c.325.134.672.21 1.023.222q.204.004.403-.038a.44.44 0 0 0 .256-.218h.624v3.326h-.624a3.02 3.02 0 0 0-.936-1.79 2.97 2.97 0 0 0-2.322-1.062 2.8 2.8 0 0 0-1.794.53 1.8 1.8 0 0 0-.658 1.48c-.004.55.191 1.083.55 1.5.393.46.896.811 1.462 1.024q1.352 1.466 2.924 2.942a205 205 0 0 0 2.998 2.761c.26-.417.452-.873.568-1.35.114-.513.17-1.036.166-1.56a2 2 0 0 0-.606-1.52 2.27 2.27 0 0 0-1.625-.565v-.708h5.017v.658h-.546q-.184-.002-.715.624a1.83 1.83 0 0 0-.53.914v.038a7.5 7.5 0 0 1-.365 2.065 6.5 6.5 0 0 1-.92 1.807zm-4.789 2.121a5.3 5.3 0 0 0 1.7-.255 5.4 5.4 0 0 0 1.37-.69l-.109-.072a104 104 0 0 1-3.07-2.851 52 52 0 0 1-2.927-3.074 4.4 4.4 0 0 0-.839 1.248 4.3 4.3 0 0 0-.293 1.754 3.65 3.65 0 0 0 1.335 2.724 4.14 4.14 0 0 0 2.833 1.207zM43.012 5.08a1.16 1.16 0 0 1-.82-.33 1.06 1.06 0 0 1-.35-.806V3.91a1.09 1.09 0 0 1 .35-.861 1.345 1.345 0 0 1 1.716 0 1.09 1.09 0 0 1 .35.861h-.038c.025 0 .037 0 .037.034a1.06 1.06 0 0 1-.35.805c-.207.21-.49.33-.786.331zm9.32 29.284c1.003.058 2-.197 2.851-.73a5.6 5.6 0 0 0 1.716-2.121h.737a6.24 6.24 0 0 1-2.16 2.98 5.8 5.8 0 0 1-3.544 1.079 6.03 6.03 0 0 1-4.864-2.184 7.83 7.83 0 0 1-1.828-5.21 8 8 0 0 1 1.681-5.12 5.62 5.62 0 0 1 4.643-2.12c.66-.014 1.318.092 1.94.313a4.5 4.5 0 0 0 1.645.312c.175.009.35-.023.512-.094q.205-.106.365-.271h.511v4.976h-.624a5.24 5.24 0 0 0-1.132-2.742 3.61 3.61 0 0 0-3.145-1.644 3.86 3.86 0 0 0-2.89 1.08A5.4 5.4 0 0 0 47.5 26.32v-.072q-.038.402-.056.805c0 .268-.02.546-.02.84 0 .34 0 .689.038 1.042.038.352.05.677.072.97a5.17 5.17 0 0 0 1.426 3.16 4.43 4.43 0 0 0 3.373 1.298m11.544-20.51a2.6 2.6 0 0 1-.824 2.046 3.04 3.04 0 0 1-2.103.733 3.5 3.5 0 0 1-1.463-.274 2.7 2.7 0 0 0-1.17-.275.65.65 0 0 0-.4.09l-.293.238H57.2v-3.217h.549a2.96 2.96 0 0 0 .858 1.647 2.93 2.93 0 0 0 2.359 1.024c.457.024.912-.078 1.316-.293a1.03 1.03 0 0 0 .474-.937 1.2 1.2 0 0 0-.564-1.113 10 10 0 0 0-1.152-.606c-.343-.143-.651-.277-.936-.399a46 46 0 0 0-.97-.402 4.8 4.8 0 0 1-1.388-.97 2.1 2.1 0 0 1-.55-1.517 2.36 2.36 0 0 1 .734-1.872 3.47 3.47 0 0 1 3.27-.403c.313.156.658.238 1.007.24a.8.8 0 0 0 .312-.055.4.4 0 0 0 .203-.203h.475v2.808h-.55a2.66 2.66 0 0 0-.748-1.464 2.5 2.5 0 0 0-2.029-.914 1.8 1.8 0 0 0-1.188.331 1.05 1.05 0 0 0-.384.84 1.01 1.01 0 0 0 .403.876q.519.36 1.095.624.513.216.97.4l1.005.402c.524.22 1.006.53 1.425.914a2.18 2.18 0 0 1 .696 1.691zm2.393 13.381a4.57 4.57 0 0 1 1.372 3.51 4.63 4.63 0 0 1-1.372 3.529 4.47 4.47 0 0 1-3.16 1.298 4.51 4.51 0 0 1-3.202-1.298 4.63 4.63 0 0 1-1.37-3.529 4.534 4.534 0 0 1 4.571-4.79 4.5 4.5 0 0 1 3.176 1.28zm-.44 5.017v.072q.036-.403.053-.805t.018-.805c0-.268 0-.527-.018-.783-.019-.256-.028-.496-.053-.715a3.03 3.03 0 0 0-.786-1.79 2.56 2.56 0 0 0-1.92-.659 2.5 2.5 0 0 0-1.871.658 3 3 0 0 0-.787 1.754v-.047q-.072.38-.09.768c0 .268-.019.536-.019.801 0 .266 0 .53.019.787q.016.36.09.714c.073.652.348 1.266.787 1.754a2.43 2.43 0 0 0 1.872.695 2.5 2.5 0 0 0 1.937-.677 3.1 3.1 0 0 0 .768-1.722m2.998-15.6a3.78 3.78 0 0 1-3.017-1.407 5.03 5.03 0 0 1-1.189-3.348 5.05 5.05 0 0 1 1.208-3.432 3.7 3.7 0 0 1 2.998-1.354 3.1 3.1 0 0 1 2.393.936c.573.613.905 1.412.936 2.25l.037.658-6.071.487a3.9 3.9 0 0 0 .874 2.402 2.86 2.86 0 0 0 2.411 1.151 3.43 3.43 0 0 0 1.81-.399 3.23 3.23 0 0 0 1.08-1.173h.549a4.94 4.94 0 0 1-1.392 2.359 3.77 3.77 0 0 1-2.627.851zm-.037-8.848a2.29 2.29 0 0 0-2.066.967 3.9 3.9 0 0 0-.677 2.031l4.57-.39a3.86 3.86 0 0 0-.202-1.813q-.3-.81-1.625-.814zM79.83 34.636q.22 0 .602-.384.384-.384.384-.602v-4.992a1.64 1.64 0 0 0-.346-1.08 1.36 1.36 0 0 0-1.114-.42 3 3 0 0 0-1.775.657q-.896.661-.896 1.099v4.751q0 .22.384.603.385.383.568.383h.55v.696h-4.68v-.696h.51q.22 0 .603-.383.384-.383.384-.603v-4.992c.02-.404-.11-.802-.365-1.117a1.37 1.37 0 0 0-1.099-.42 2.96 2.96 0 0 0-1.81.695q-.895.693-.895 1.17v4.68q0 .22.384.602.385.384.605.384h.512v.696h-4.68v-.696h.55c.12 0 .311-.128.564-.384s.384-.455.384-.602v-5.825q0-.217-.384-.584-.383-.364-.565-.364h-.549v-.696h2.808l.365 1.756a21 21 0 0 1 1.463-1.41c.535-.409 1.2-.61 1.872-.565a2.7 2.7 0 0 1 1.607.493 2.06 2.06 0 0 1 .843 1.445 22 22 0 0 1 1.535-1.354 2.87 2.87 0 0 1 1.828-.55 2.54 2.54 0 0 1 1.79.678 2.5 2.5 0 0 1 .734 1.922v4.992q0 .219.384.602.383.384.565.384H84v.695h-4.68v-.695zM73.725 9.052a2.5 2.5 0 0 0-.567-.624q-.466-.403-.624-.403h-.403v-.717h4.936v.695h-.583q-.184 0-.475.365c-.163.17-.266.39-.293.624l2.184 4.496 2.012-4.461a.9.9 0 0 0-.274-.659q-.312-.365-.496-.365h-.602v-.695h3.694v.695h-.403q-.183 0-.568.384c-.2.183-.367.4-.493.64l-3.12 6.617-2.683 5.158-.795-.406 2.776-5.01zM90.29 25.98a3.1 3.1 0 0 1 2.63 1.279c.668.99.996 2.17.936 3.363a5.6 5.6 0 0 1-1.061 3.51 3.26 3.26 0 0 1-2.705 1.392 3.5 3.5 0 0 1-1.919-.459 3.8 3.8 0 0 1-1.226-1.37v4.387q0 .256.402.624c.269.247.465.365.587.365h.59v.668h-4.818v-.696h.587c.236-.05.449-.178.602-.365a.98.98 0 0 0 .384-.624V27.856q0-.217-.384-.584a1.06 1.06 0 0 0-.602-.364h-.587v-.734h2.961l.293 1.904a4.5 4.5 0 0 1 1.408-1.61 3.45 3.45 0 0 1 1.922-.512zm1.828 6.177.072-.73a7 7 0 0 0 .037-.73q0-.32-.037-.64-.038-.31-.072-.605a3.1 3.1 0 0 0-.733-1.734 2.02 2.02 0 0 0-1.56-.624 2.44 2.44 0 0 0-1.829.711 4.4 4.4 0 0 0-1.023 1.772v2.378a2.5 2.5 0 0 0 .767 1.828 2.54 2.54 0 0 0 1.873.767h.037a2.18 2.18 0 0 0 1.753-.677 3.3 3.3 0 0 0 .715-1.775zm20.657 1.501q0 .22.403.602.402.384.583.384h.549v.696h-4.789v-.696h.531c.124 0 .312-.128.586-.384.275-.256.403-.455.403-.602V28.7c.012-.4-.11-.793-.347-1.115a1.28 1.28 0 0 0-1.079-.458 3.4 3.4 0 0 0-1.994.73q-1.008.735-1.004 1.17v4.608q0 .256.402.624c.163.187.382.315.624.365h.537v.696h-7.763l-.256-1.9q-.577.759-1.279 1.407a2.5 2.5 0 0 1-1.757.677 2.25 2.25 0 0 1-1.644-.696 2.42 2.42 0 0 1-.695-1.79 2.06 2.06 0 0 1 1.004-1.957 7.4 7.4 0 0 1 1.956-.786l2.378-.477.037-1.096a2.18 2.18 0 0 0-.511-1.516 2.29 2.29 0 0 0-1.757-.568 1.68 1.68 0 0 0-1.591.73 2.09 2.09 0 0 0 .093 1.904h-.658l-1.248-1.829a5.11 5.11 0 0 1 3.803-1.463c.896-.03 1.778.22 2.524.715a2.36 2.36 0 0 1 1.024 2.065v4.898q0 .22.402.584.402.366.584.368h1.098c.243-.05.462-.18.624-.368q.402-.365.402-.584v-5.781q0-.217-.402-.584a1.14 1.14 0 0 0-.624-.364h-.549v-.734h2.889l.365 1.904q.734-.782 1.56-1.464a3.1 3.1 0 0 1 2.009-.624 2.5 2.5 0 0 1 1.81.73 2.54 2.54 0 0 1 .752 1.904zm-12.614-3.241-2.184.549a2.03 2.03 0 0 0-1.207.674 1.87 1.87 0 0 0-.33 1.117v.034a1.4 1.4 0 0 0 .401 1.008 1.31 1.31 0 0 0 .99.418h.053c.49-.02.956-.214 1.316-.546.371-.297.688-.656.936-1.061zm23.254-4.206v.695h-.44q-.146 0-.531.384a4.6 4.6 0 0 0-.53.602l-3.07 6.655-2.743 5.12-.767-.402 2.742-5.01-3.216-6.325a2.6 2.6 0 0 0-.568-.624c-.312-.268-.506-.403-.602-.403h-.44v-.692h4.935v.695h-.549q-.183 0-.493.366a1.07 1.07 0 0 0-.312.624l2.184 4.499 2.022-4.512a.85.85 0 0 0-.274-.624q-.31-.365-.493-.365h-.584v-.683z" fill="#0A1D08"></path></svg>