<svg viewBox="0 0 114 20" xmlns:xlink="http://www.w3.org/1999/xlink" xmlns="http://www.w3.org/2000/svg" width="114" height="20" fill="currentColor"><path d="M18.994 1.188H1.8a.07.07 0 0 0-.053.022.07.07 0 0 0-.021.053v17.195c0 .02.007.04.021.052a.07.07 0 0 0 .053.022h9.106a.07.07 0 0 0 .042-.012.07.07 0 0 0 .027-.035.07.07 0 0 0 .004-.044.1.1 0 0 0-.02-.038l-8.302-8.301a.07.07 0 0 1-.022-.053q0-.03.022-.053l7.848-7.849a.07.07 0 0 1 .052-.022q.031 0 .053.022l8.329 8.33q.015.018.038.02c.015.004.029 0 .044-.003a.1.1 0 0 0 .034-.027.07.07 0 0 0 .013-.042V1.263a.07.07 0 0 0-.022-.053.07.07 0 0 0-.053-.022zM38.925 9.283a.07.07 0 0 0-.044-.004.1.1 0 0 0-.038.02l-8.302 8.302s-.014.012-.023.016a.1.1 0 0 1-.03.005.1.1 0 0 1-.028-.005.1.1 0 0 1-.024-.017L22.59 9.752a.07.07 0 0 1-.022-.052q0-.031.022-.053l8.327-8.329a.07.07 0 0 0 .02-.038q.003-.021-.004-.044a.07.07 0 0 0-.07-.047h-9.158a.07.07 0 0 0-.053.022.07.07 0 0 0-.021.053v17.195c0 .02.007.04.021.052a.07.07 0 0 0 .053.022h17.193a.07.07 0 0 0 .053-.022.07.07 0 0 0 .022-.052V9.352a.1.1 0 0 0-.013-.042.1.1 0 0 0-.034-.027M49.606 12.198c-1.2 0-1.92-.994-1.92-2.648s.728-2.648 1.92-2.648c.915 0 1.485.57 1.672 1.643l.994-.167c-.187-1.465-1.23-2.42-2.666-2.42-1.77 0-2.933 1.427-2.933 3.592s1.151 3.592 2.933 3.592c1.525 0 2.548-.993 2.686-2.588l-1.014-.147c-.138 1.18-.708 1.79-1.672 1.79M54.172 8.211h-.02V7.78h-.904v5.216h.964V9.964c0-.916.305-1.319.904-1.319.178 0 .335.03.542.09l.187-.965a2.2 2.2 0 0 0-.581-.078c-.492 0-.887.196-1.092.521zM59.868 10.997c0 .757-.463 1.25-1.19 1.25-.79 0-1.172-.404-1.172-1.25V7.779h-.965v3.394c0 1.25.68 1.969 1.851 1.969.61 0 1.172-.236 1.496-.61h.02v.463h.925V7.779h-.965zM64.15 9.884c-.945-.296-1.192-.443-1.192-.758 0-.345.354-.639.875-.639.64 0 1.043.314 1.22.925l.907-.237c-.216-.935-1.033-1.545-2.125-1.545-1.091 0-1.84.668-1.84 1.515 0 .757.483 1.151 1.751 1.534 1.082.334 1.379.532 1.379.896 0 .414-.394.708-1.014.708-.886 0-1.299-.363-1.465-1.24l-.905.196c.158 1.21 1.005 1.9 2.372 1.9 1.18 0 1.989-.65 1.989-1.564 0-.827-.55-1.25-1.949-1.693zM69.392 7.632c-.55 0-1.111.245-1.407.61h-.02v-2.43H67v7.183h.964V9.777c0-.748.492-1.25 1.24-1.25.749 0 1.192.473 1.192 1.25v3.218h.964V9.601c0-1.192-.777-1.969-1.969-1.969M79.845 8.989h-.915v1.276L76.98 8.551c-.38-.33-.584-.643-.584-.944 0-.467.35-.809.906-.809s.866.313.973.887l.935-.146c-.136-.984-.877-1.598-1.928-1.598-1.052 0-1.87.701-1.87 1.646 0 .477.271.955.778 1.47-.828.556-1.186 1.266-1.186 2.008 0 1.236.914 2.097 2.394 2.097 1.08 0 1.744-.481 2.143-1.162l.69.6.574-.68-.963-.855V8.989zm-2.435 3.276c-.915 0-1.45-.529-1.45-1.24 0-.498.182-.985.845-1.413l2.045 1.783c-.223.527-.744.87-1.44.87M85.178 6.106h-1.013v6.889h4.045v-.946h-3.032zM91.153 7.632c-1.496 0-2.49 1.111-2.49 2.755s.994 2.755 2.49 2.755 2.49-1.111 2.49-2.755-1.004-2.755-2.49-2.755m0 4.615c-.945 0-1.525-.72-1.525-1.86s.58-1.86 1.525-1.86 1.525.72 1.525 1.86-.58 1.86-1.525 1.86M96.456 11.694h-.018L94.853 7.78h-1.034l2.196 5.216h.865l2.195-5.216h-1.033zM101.541 7.632c-1.437 0-2.421 1.122-2.421 2.755s.974 2.755 2.43 2.755c.994 0 1.762-.443 2.225-1.31l-.748-.5c-.433.698-.827.955-1.486.955-.867 0-1.417-.709-1.447-1.615h3.808v-.403c0-1.575-.936-2.637-2.361-2.637m-1.428 2.303c.02-.787.631-1.448 1.428-1.448.837 0 1.367.61 1.407 1.448zM105.869 5.81h-.964v7.183h.964zM110.537 7.779l-1.477 3.71h-.019l-1.486-3.71h-1.024l2.027 4.85-1.101 2.58h.993l3.1-7.43z" fill="#0A1D08"></path></svg>