<svg xmlns:xlink="http://www.w3.org/1999/xlink" xmlns="http://www.w3.org/2000/svg" fill="currentColor" viewBox="0 0 100 100" class="text-desert-700" aria-label="AICPA SOC2 Certified" width="100"  height="100" ><path d="m33.75 46.44-1.16-3.36h-6.16l-1.14 3.36h-1.8l5-14.18h2.08l5.02 14.18zm-4.26-12.4-2.5 7.36h5.02zM37.351 46.44V32.26h1.82v14.18zM52.651 41.92a4.7 4.7 0 0 1-.42 1.82 4.9 4.9 0 0 1-.98 1.46q-.64.64-1.64 1.08a5.3 5.3 0 0 1-2.16.44q-1.08 0-2.08-.38a4.95 4.95 0 0 1-1.76-1.14 5 5 0 0 1-.94-1.22 7.6 7.6 0 0 1-.54-1.42 9.5 9.5 0 0 1-.24-1.54 23 23 0 0 1 0-3.3q.06-.82.24-1.56a7 7 0 0 1 .54-1.4q.36-.68.94-1.24a4.95 4.95 0 0 1 1.76-1.14 5.8 5.8 0 0 1 2.08-.38q1.16 0 2.14.42 1 .4 1.64 1.04.62.64.98 1.44.381.8.42 1.8h-1.84a2.9 2.9 0 0 0-.24-1.08 3.2 3.2 0 0 0-.54-.9 3.05 3.05 0 0 0-1.08-.74q-.66-.3-1.48-.3-.72 0-1.4.28a3.7 3.7 0 0 0-1.18.8q-.44.46-.68 1.02t-.36 1.18q-.12.6-.14 1.22a37 37 0 0 0 0 2.36q.02.62.14 1.24.12.6.36 1.18.24.56.68 1a3.7 3.7 0 0 0 1.18.8q.68.28 1.4.28.82 0 1.48-.3.68-.32 1.1-.78.34-.4.54-.92a3.2 3.2 0 0 0 .24-1.12zM64.987 36.54q0 2.04-1.18 3.22-.579.58-1.44.88-.86.3-2.04.3h-3.5v5.5h-1.78V32.26h5.26q1.26 0 2.14.34a3.7 3.7 0 0 1 1.46.94q.52.56.8 1.32.28.74.28 1.68m-1.84 0q0-1.36-.78-2-.78-.66-2.1-.66h-3.44v5.44h3.46q1.44 0 2.14-.66.72-.68.72-2.12M74.669 46.44l-1.16-3.36h-6.16l-1.14 3.36h-1.8l5-14.18h2.08l5.02 14.18zm-4.26-12.4-2.5 7.36h5.02zM36.5 63.54q0 .9-.34 1.56t-.86 1.18q-.74.72-1.82 1.08-1.06.34-2.2.34-2.58 0-4.06-1.36a5.1 5.1 0 0 1-1.1-1.5 4.35 4.35 0 0 1-.42-1.9h1.86q0 .64.28 1.24.28.58.72 1 .48.46 1.22.68.74.2 1.5.2.82 0 1.48-.18a2.6 2.6 0 0 0 1.16-.64q.34-.3.52-.68.2-.4.2-.98 0-.84-.56-1.46t-1.82-.82a19 19 0 0 0-1.12-.16q-.54-.08-1.12-.18a6.7 6.7 0 0 1-1.5-.4 4.2 4.2 0 0 1-1.2-.74q-.5-.48-.8-1.12-.28-.66-.28-1.5a3.7 3.7 0 0 1 .32-1.52q.34-.74.92-1.28 1.5-1.4 3.72-1.4 1.04 0 2 .34a4.5 4.5 0 0 1 1.68 1.02q1.3 1.24 1.36 3.04h-1.86a3.4 3.4 0 0 0-.22-.98 2.7 2.7 0 0 0-.48-.8 2.7 2.7 0 0 0-1.04-.72q-.62-.26-1.46-.26-.76 0-1.42.24a2.56 2.56 0 0 0-1.1.74 2.6 2.6 0 0 0-.44.7q-.14.36-.14.84t.18.84q.18.34.48.58t.68.38.78.2q.6.08 1.18.18.6.08 1.18.18 1.78.26 2.86 1.3 1.08 1.02 1.08 2.72M49.435 60.36q0 .84-.08 1.66a8.3 8.3 0 0 1-.26 1.54q-.18.74-.54 1.42a5 5 0 0 1-.94 1.22 4.95 4.95 0 0 1-1.76 1.14q-.98.38-2.06.38t-2.08-.38a5 5 0 0 1-1.74-1.14q-.58-.56-.94-1.22a7 7 0 0 1-.56-1.42 11 11 0 0 1-.26-1.54 23 23 0 0 1 0-3.3q.08-.82.26-1.56.2-.74.56-1.4.36-.68.94-1.24a5 5 0 0 1 1.74-1.14 5.8 5.8 0 0 1 2.08-.38q1.08 0 2.06.38a4.95 4.95 0 0 1 1.76 1.14q.58.56.94 1.24.36.66.54 1.4.2.74.26 1.56.08.8.08 1.64m-1.84 0q0-.56-.04-1.18a7.4 7.4 0 0 0-.14-1.22q-.12-.62-.36-1.18a3.4 3.4 0 0 0-.68-1.02 3.4 3.4 0 0 0-1.2-.78q-.66-.28-1.38-.28t-1.4.28q-.66.26-1.18.78-.44.46-.68 1.02t-.36 1.18q-.12.6-.16 1.22a37 37 0 0 0 0 2.36q.04.62.16 1.24.12.6.36 1.18.24.56.68 1a3.7 3.7 0 0 0 1.18.8q.68.26 1.4.26t1.38-.26a3.6 3.6 0 0 0 1.2-.8 3.2 3.2 0 0 0 .68-1q.24-.58.36-1.18.12-.62.14-1.24.04-.62.04-1.18M61.974 62.92a4.7 4.7 0 0 1-.42 1.82 4.9 4.9 0 0 1-.98 1.46q-.64.64-1.64 1.08a5.3 5.3 0 0 1-2.16.44q-1.08 0-2.08-.38a4.95 4.95 0 0 1-1.76-1.14q-.58-.56-.94-1.22a7.6 7.6 0 0 1-.54-1.42 9.5 9.5 0 0 1-.24-1.54 23 23 0 0 1 0-3.3q.06-.82.24-1.56.2-.74.54-1.4.36-.68.94-1.24a4.95 4.95 0 0 1 1.76-1.14 5.8 5.8 0 0 1 2.08-.38q1.16 0 2.14.42 1 .4 1.64 1.04.62.64.98 1.44a4.6 4.6 0 0 1 .42 1.8h-1.84a2.9 2.9 0 0 0-.24-1.08 3.2 3.2 0 0 0-.54-.9 3.05 3.05 0 0 0-1.08-.74q-.66-.3-1.48-.3-.72 0-1.4.28a3.7 3.7 0 0 0-1.18.8q-.44.46-.68 1.02t-.36 1.18q-.12.6-.14 1.22a37 37 0 0 0 0 2.36q.02.62.14 1.24.12.6.36 1.18.24.56.68 1a3.7 3.7 0 0 0 1.18.8q.68.28 1.4.28.82 0 1.48-.3.68-.32 1.1-.78.339-.4.54-.92a3.2 3.2 0 0 0 .24-1.12zM64.95 67.44v-2.3l5.38-5.24c.96-.94 1.24-1.78 1.24-2.48 0-1.22-.78-1.9-1.98-1.9-1.58 0-2.18 1.08-2.18 2.46h-2.54c0-2.88 1.88-4.68 4.76-4.68 2.56 0 4.48 1.54 4.48 4.18 0 1.44-.78 2.72-1.84 3.74l-4.14 3.96h6.22v2.26z" fill="#4A3212"></path></svg>