<svg viewBox="0 0 102 24" xmlns:xlink="http://www.w3.org/1999/xlink" xmlns="http://www.w3.org/2000/svg" width="102" height="24" fill="currentColor"><path d="M25.143 16.912q.025-.276.192-.544.176-.276.377-.427c.504.345 1.05.626 1.622.837a5.1 5.1 0 0 0 1.724.319q1.196 0 1.907-.494.72-.503.719-1.382 0-.795-.535-1.314a4.1 4.1 0 0 0-1.288-.845l-2.024-.853q-1.063-.453-1.657-1.13-.585-.68-.585-1.666 0-.829.435-1.532t1.238-1.121q.811-.427 1.924-.427.953 0 1.798.242.772.216 1.497.561 0 .26-.134.544c-.08.179-.2.336-.35.46a7.4 7.4 0 0 0-1.398-.552 4.8 4.8 0 0 0-1.363-.217q-1.061 0-1.748.536a1.7 1.7 0 0 0-.678 1.405q0 .704.494 1.121a4.7 4.7 0 0 0 1.162.687l1.958.82q.652.268 1.22.679c.37.264.684.6.921.987q.351.577.351 1.348 0 .928-.426 1.657-.42.72-1.288 1.138-.87.418-2.2.418a6.5 6.5 0 0 1-2.075-.343 7 7 0 0 1-1.79-.912m10.551 1.055a2.7 2.7 0 0 1-.569.05 2.8 2.8 0 0 1-.585-.05v-6.512q0-.469-.15-.636-.144-.168-.536-.167h-.15a2 2 0 0 1-.043-.645q.017-.1.042-.226.276-.041.477-.05.2-.017.326-.017h.134q.502 0 .778.31.276.3.276.845zM34.02 7.605q0-.369.117-.603a1 1 0 0 1 .327-.117q.21-.05.393-.05.166 0 .394.05a.8.8 0 0 1 .325.117q.05.101.084.276.033.177.033.327 0 .369-.117.602-.084.075-.317.126-.235.042-.402.042-.184 0-.394-.042a1.1 1.1 0 0 1-.325-.126 1.35 1.35 0 0 1-.118-.602m25.585 9.458q.101.251.101.636v.125a.3.3 0 0 1-.017.11 14 14 0 0 1-.585.066 7 7 0 0 1-.603.034q-.602 0-.986-.343-.386-.344-.386-.996V5.763l.101-.1h.418q.402 0 .51.21.11.2.109.594v9.893q0 .351.16.527.157.176.46.176zm17.536-4.813q0 .979-.134 1.883a5.3 5.3 0 0 1-.519 1.674q-.384.78-1.154 1.398a3.2 3.2 0 0 1-.903.494 6 6 0 0 1-1.08.268 6.6 6.6 0 0 1-.995.083q-1.272 0-2.543-.033l-1.346-.033-.11-.11V6.626l.11-.11q.72-.024 1.338-.04.618-.017 1.238-.017h1.313a6.7 6.7 0 0 1 2.083.352q.527.183.895.485.761.619 1.146 1.406.393.779.527 1.682.134.896.134 1.866m-2.2 0q0-.711-.092-1.431a4.5 4.5 0 0 0-.352-1.322 2.3 2.3 0 0 0-.786-.98q-.51-.368-1.364-.368-.475 0-.911-.008a50 50 0 0 0-.954-.009v8.228q.528-.008.954 0h.911q.855 0 1.364-.368c.345-.25.617-.588.787-.98a4.6 4.6 0 0 0 .35-1.33q.093-.729.093-1.432m10.184 1.566q0 1.305-.418 2.293-.419.987-1.247 1.54-.827.544-2.049.544-1.22 0-2.05-.553-.82-.552-1.237-1.54-.418-.987-.418-2.284 0-1.306.418-2.286.427-.987 1.246-1.54.829-.552 2.041-.552 1.23 0 2.058.56.828.553 1.238 1.54.418.98.418 2.278m-5.278 0q0 .744.126 1.389.125.636.468 1.029.343.385.978.385.645 0 .98-.385.334-.394.46-1.03.132-.644.133-1.388 0-.738-.134-1.382-.126-.644-.46-1.037-.334-.394-.979-.394-.635 0-.978.393-.344.395-.468 1.038-.126.645-.126 1.382m10.732-.754a4.4 4.4 0 0 0-.084-1.046q-.091-.47-.376-.736-.276-.269-.82-.268-.711 0-1.07.702-.352.695-.352 2.143 0 1.431.443 2.06.453.618 1.28.618.536 0 1.029-.242.485-.233.92-.553.269.16.51.52.251.36.318.686a4.1 4.1 0 0 1-1.38.904 4.4 4.4 0 0 1-1.723.343q-.904-.001-1.573-.326a3 3 0 0 1-1.095-.913 4.2 4.2 0 0 1-.653-1.381 6.7 6.7 0 0 1-.209-1.716q0-1.581.527-2.553.527-.97 1.347-1.414a3.55 3.55 0 0 1 1.723-.452q.745 0 1.322.218.585.217.986.585.403.37.603.845.209.47.209.98 0 .519-.268.804-.267.276-.77.276-.25 0-.451-.017a5 5 0 0 1-.393-.066m2.37 4.31q.016-.35.2-.77.184-.426.435-.661.536.286 1.13.502c.386.143.793.216 1.204.218q.603 0 .937-.243.343-.242.351-.62a.8.8 0 0 0-.234-.56q-.226-.251-.703-.426l-.953-.352a5 5 0 0 1-1.063-.527 2.7 2.7 0 0 1-.77-.787q-.284-.47-.284-1.122 0-.795.394-1.372.393-.586 1.087-.896.694-.318 1.598-.318.72 0 1.53.193.812.192 1.33.451.018.37-.15.82-.168.452-.435.662a9 9 0 0 0-1.07-.394 4 4 0 0 0-1.205-.184q-.46 0-.736.226a.7.7 0 0 0-.268.569q0 .302.218.503.217.192.668.36l1.03.384q.945.336 1.555.955.612.62.611 1.623 0 1.207-.929 1.9-.92.687-2.484.687a5.6 5.6 0 0 1-1.665-.243 6.2 6.2 0 0 1-1.33-.578" fill="#0A1D08"></path><path fill-rule="evenodd" d="M61.488 14.217q.024.766.196 1.381.21.72.686 1.13.476.402 1.305.402a4 4 0 0 0 1.28-.2 7 7 0 0 0 1.162-.52q.167.15.285.393.124.236.15.427a5.4 5.4 0 0 1-1.38.67 5.1 5.1 0 0 1-1.648.268q-.928 0-1.564-.343a2.75 2.75 0 0 1-1.004-.955 4.3 4.3 0 0 1-.544-1.38 7.8 7.8 0 0 1-.167-1.642q0-1.237.393-2.2.394-.971 1.138-1.524.744-.56 1.798-.56 1.071 0 1.782.485c.476.319.848.77 1.07 1.297q.36.812.36 1.8 0 .301-.017.536-.01.269-.05.536zm3.91-2.444q.2.594.2 1.306v.234h-4.11q.048-1.213.53-1.984.544-.861 1.556-.862.728 0 1.171.36.453.352.653.946" clip-rule="evenodd" fill="#0A1D08"></path><path d="M38.712 9.923q-.109-.21-.51-.209h-.435l-.1.117v8.136q.225.05.585.05.342 0 .569-.05v-5.96q.146-.195.317-.367.46-.469.97-.72.52-.251.97-.251.644 0 .896.452.26.45.26 1.473v5.373q.225.05.585.05.343 0 .568-.05v-5.775q.001-.1-.004-.198.163-.215.348-.396.468-.46.978-.695t.954-.234q.644 0 .895.444.26.443.26 1.464v4.72q0 .386.133.578.142.193.468.193.201 0 .402-.076a.95.95 0 0 0 .334-.175 2.5 2.5 0 0 1-.15-.636 9 9 0 0 1-.034-.77v-4.219a3.6 3.6 0 0 0-.225-1.289 2.04 2.04 0 0 0-.678-.937q-.46-.352-1.187-.352-.536 0-1.047.193a4 4 0 0 0-.986.527 6 6 0 0 0-.682.558 2 2 0 0 0-.682-.926q-.46-.352-1.187-.352-.536 0-1.071.218a3.6 3.6 0 0 0-1.405 1.001v-.315q0-.393-.11-.595" fill="#0A1D08"></path><path fill-rule="evenodd" d="M50.574 9.923q-.11-.21-.51-.209h-.419l-.1.1v11.651l.1.101h.418q.402 0 .51-.21.11-.209.11-.593V17.38q.357.23.735.411c.446.206.931.312 1.422.31q.72 0 1.439-.444.72-.452 1.196-1.406.477-.954.477-2.486 0-1.246-.318-2.193-.318-.945-.945-1.473-.62-.536-1.53-.536-.762 0-1.38.31a3.6 3.6 0 0 0-1.097.843v-.198q0-.393-.108-.595m.108 2.025v4.337q.297.2.645.41.652.385 1.413.385.51 0 .979-.335.468-.343.76-1.072.302-.728.302-1.908 0-1.139-.26-1.833-.258-.704-.685-1.021a1.43 1.43 0 0 0-.895-.327q-.519 0-1.054.268a3.1 3.1 0 0 0-.954.762 3 3 0 0 0-.25.334M4.608 3.184c0-.513.413-.929.923-.929h9.638A2.41 2.41 0 0 1 17.57 4.67v14.86a2.41 2.41 0 0 1-2.4 2.415H3.35a.926.926 0 0 1-.925-.93c0-.512.413-.928.924-.928h11.82c.306 0 .554-.25.554-.558V4.671a.555.555 0 0 0-.554-.558H5.531a.926.926 0 0 1-.923-.928z" clip-rule="evenodd" fill="#0A1D08"></path><path fill-rule="evenodd" d="M7.596 7.642c0-.513.414-.93.924-.93h4.802c.51 0 .923.417.923.93a.926.926 0 0 1-.923.929H8.52a.927.927 0 0 1-.924-.93zM3.533 12.1c0-.513.413-.929.924-.929h8.865c.51 0 .923.416.923.929a.926.926 0 0 1-.923.928H4.457a.926.926 0 0 1-.924-.928m2.217 4.457c0-.512.413-.928.923-.928h6.65c.51 0 .922.416.922.929a.926.926 0 0 1-.923.928h-6.65a.926.926 0 0 1-.922-.929" clip-rule="evenodd" fill="#0A1D08"></path></svg>