<svg xmlns:xlink="http://www.w3.org/1999/xlink" xmlns="http://www.w3.org/2000/svg" fill="currentColor" viewBox="0 0 100 100" class="text-desert-700" aria-label="HIPAA Compliant" width="100"  height="100" ><mask id="HIPAA_svg__b" width="72" height="64" x="14" y="14" maskUnits="userSpaceOnUse" style="mask-type: alpha;" fill="#4A3212"><path fill="url(&quot;#HIPAA_svg__a&quot;)" d="M14 14h72v64H14z"></path></mask><g mask="url(#HIPAA_svg__b)" fill="#4A3212"><path d="M49.686 68.316c.023 1.607.046 2.778.07 3.352a.4.4 0 0 1 0 .23v.16c0 .322.046.643.14.942.092-.299.139-.62.139-.941 0-.115.047-1.791.116-4.478-.023.023-.046.046-.046.07a4 4 0 0 0-.42.665m-.233-17.886.21-.138c.14-.092.256-.16.349-.253.186-.114.372-.252.559-.367.023-1.309.07-2.64.093-3.95q-.56-.24-1.188-.481c-.023 0-.047-.023-.07-.023-.046-.023-.07-.023-.116-.046-.28-.092-.536-.207-.839-.299-.349-.137-.698-.252-1.047-.39-2.33 1.217-2.795 1.79-2.795 2.916 0 1.584 1.374 2.296 3.75 3.788.372-.275.744-.528 1.094-.757m-2.865-2.825s-.163-1.01 2.469-2.18c.07-.024.14-.07.21-.093.023 1.585.046 3.169.093 4.753-1.304-.872-2.772-1.699-2.772-2.48M50.571 67.1a6 6 0 0 1-.35.39c.676.896.629 1.768.256 2.893.35-.39 1.048-1.377.466-2.663a9 9 0 0 0-.372-.62m-1.072-9.414.862.85.582.574c.023.023.07.046.117.092 1.583-1.355 3.027-2.64 3.027-4.248 0-1.263-1.234-2.41-2.469-3.33a3 3 0 0 0-.349.23c-.28.184-.535.345-.768.505 0 0-.024 0-.024.023-.046.046-.116.07-.163.115-.326.23-.628.436-.908.643.047 1.538.07 3.077.093 4.546m1.002-5.074c1.537 1.102 2.142 1.814 2.142 2.595 0 .803-.861 1.744-2.259 3.122.023-1.837.07-3.742.117-5.717m-.466-29.091c.373 0 .745-.115 1.048-.322.303-.206.559-.505.699-.826.14-.345.186-.712.116-1.08a1.95 1.95 0 0 0-.512-.964 1.9 1.9 0 0 0-.979-.505 1.8 1.8 0 0 0-1.094.115c-.35.138-.652.39-.838.689-.21.298-.326.666-.326 1.033 0 .253.046.482.14.712.093.23.232.436.419.597.186.183.372.321.605.413.21.092.466.138.722.138m6.194 13.96s-.046-1.286-2.165-1.424c-2.166-.137-2.26.781-2.213 1.125.163 0 .303.046.303.092s-.116.092-.256.092c.116.344.442.758 1.374 1.217.768.367 1.14.344 1.583.276 0 0 .513.298.513.78 0 .46-.815 1.355-4.635 3.238.233-10.149.443-19.058.443-19.058h.233a.38.38 0 0 0 .256-.115.37.37 0 0 0 .117-.252v-.115c0-.046 0-.092-.024-.138-.023-.046-.046-.091-.093-.114-.21.23-.442.413-.722.55s-.582.184-.885.184-.605-.069-.885-.183a1.9 1.9 0 0 1-.722-.551.4.4 0 0 0-.093.114c-.023.046-.023.092-.023.138v.115c0 .092.047.184.116.252.07.07.163.115.257.115h.232s.163 8.656.327 18.621l1.024.505c.047.023.117.046.163.07.862.413 1.584.757 2.19 1.079 2.048-.781 4.051-1.677 4.657-2.94 1.07-2.341-1.072-3.673-1.072-3.673m-2.84-.528c-.234 0-.42-.115-.42-.253 0-.137.186-.252.42-.252.232 0 .418.114.418.252s-.186.253-.419.253M49.685 66.02c.186-.23.349-.46.535-.666.024-1.309.07-2.778.093-4.362-.233-.23-.489-.46-.768-.712-.093-.07-.163-.16-.256-.23-.117-.115-.233-.206-.35-.298-.652.597-1.932 1.928-1.932 3.076 0 1.355 1.327 2.733 2.328 3.72.093-.207.21-.367.35-.528m-.14-5.465c.047 1.952.07 3.743.093 5.281-.768-1.01-1.584-2.043-1.584-2.755 0-.666.396-1.424 1.49-2.526m.535-17.312c-4.54-2.158-5.472-3.146-5.472-3.628s.512-.78.512-.78c.443.091.815.091 1.584-.276.931-.436 1.257-.872 1.374-1.217-.14 0-.256-.046-.256-.092s.14-.092.302-.092v-.023c.024-.344-.093-1.24-2.235-1.102-2.12.138-2.166 1.424-2.166 1.424s-2.142 1.355-1.024 3.65c.978 2.044 5.565 3.123 8.22 4.294 2.631 1.171 2.468 2.182 2.468 2.182 0 .872-1.77 1.79-3.167 2.755s-4.354 2.64-4.354 4.615c0 1.814 1.84 3.214 3.632 4.776 1.817 1.561 2.399 2.502 2.399 3.375 0 1.194-2.003 2.801-3.027 4.799-1.025 1.997 1 5.097.372 3.467-.652-1.63-.303-2.778.536-3.927 1.024-1.4 3.213-2.778 3.213-4.637 0-1.562-2.305-3.399-2.305-3.399-2.05-2.02-3.353-3.168-3.353-4.178s.978-1.906 3.726-3.674c2.724-1.745 4.331-2.434 4.331-4.133 0-1.493-.768-2.02-5.31-4.179m-3.493-6.773c.233 0 .42.114.42.252s-.187.253-.42.253-.419-.115-.419-.253.187-.252.42-.252" fill="#4A3212"></path><path d="M44.842 34.794c.373-.39.722-.85.978-1.332-.186.413-.908 1.974-.21 2.112.769.138 1.63-.092 3.19-2.043-.046-2.503-.116-5.649-.139-7.302-.745.046-1.816.092-2.282-.895-.559-1.194.046-4.248-1.816-5.534-1.864-1.286-4.844-.964-7.499.551-2.631 1.493-6.125 3.444-10.433 5.143-4.308 1.7-6.986 2.388-7.498 2.457-.489.092.396.413 2.236.46 1.84.045 3.376-.092 3.376-.092l13.507-6.062s-11.644 5.717-12.622 6.337-1.77.827-1.7 1.4c.07.575.815.506 2.864.46s2.492-.23 3.19-.436c.7-.207 8.268-3.651 8.268-3.651s-8.104 3.972-9.269 4.89c-1.164.919.094 1.217.885 1.24.815.023 2.981-.091 4.192-.688 1.21-.597 4.983-2.985 4.983-2.985s-3.725 2.64-4.447 3.237c-.583.482-.885.896-.746 1.4.21.644 1.328.575 2.818.047 0 0 1.537-.528 2.12-1.034.582-.528 2.212-1.951 2.212-1.951s-1.933 1.974-2.422 2.824c-.466.85-.56 1.056-.326 1.538.326.69 2.794-.023 3.493-.757a18 18 0 0 0 1.444-1.814s-.746 1.194-.909 1.883c-.163.688-.349 1.24.326 1.308.745.115 1.444.138 2.236-.712M59 30.546s1.63 1.423 2.213 1.951c.582.529 2.119 1.034 2.119 1.034 1.49.528 2.608.597 2.818-.046.163-.505-.163-.942-.746-1.4-.721-.598-4.447-3.238-4.447-3.238s3.772 2.388 4.983 2.985 3.377.711 4.192.688 2.049-.321.885-1.24c-1.165-.918-9.269-4.89-9.269-4.89s7.545 3.467 8.267 3.65c.699.207 1.141.368 3.19.437 2.05.046 2.772.115 2.865-.46.093-.55-.722-.757-1.7-1.4-.978-.62-12.622-6.337-12.622-6.337l13.507 6.062s1.537.137 3.376.091c1.84-.046 2.725-.367 2.236-.459s-3.19-.758-7.498-2.457-7.802-3.627-10.433-5.143c-2.632-1.492-5.635-1.837-7.498-.55-1.863 1.285-1.258 4.316-1.817 5.533-.466.987-1.537.941-2.282.895a957 957 0 0 0-.163 7.233c1.584 1.997 2.492 2.25 3.237 2.09.699-.139 0-1.7-.21-2.113.28.482.606.918.978 1.331.769.85 1.49.827 2.19.735.698-.092.488-.62.325-1.309-.163-.688-.908-1.882-.908-1.882.443.62.932 1.24 1.444 1.814.699.734 3.167 1.47 3.493.757.21-.459.14-.689-.326-1.538-.442-.85-2.399-2.824-2.399-2.824" fill="#4A3212"></path></g><path d="M36.167 57.91h1.29v2.8h2.91v-2.8h1.29V65h-1.29v-3.06h-2.91V65h-1.29zM43.335 57.91h1.31V65h-1.31zM46.323 57.91h2.8c1.63 0 2.48.91 2.48 2.17 0 1.25-.85 2.18-2.48 2.18h-1.52V65h-1.28zm1.28 3.22h1.45c.87 0 1.25-.39 1.25-1.04s-.38-1.05-1.25-1.05h-1.45zM56.592 65l-.53-1.58h-2.88l-.53 1.58h-1.33l2.53-7.09h1.59l2.53 7.09zm-3.02-2.72h2.1l-1.05-3.11zM63.34 65l-.53-1.58h-2.88L59.4 65h-1.33l2.53-7.09h1.59L64.72 65zm-3.02-2.72h2.1l-1.05-3.11zM24.814 77.14c-.81 0-1.54-.23-2.1-.79-.76-.77-.98-1.73-.98-2.9s.22-2.12.99-2.89c.56-.56 1.29-.79 2.09-.79 1.53 0 2.66 1.05 2.77 2.54h-1.32c-.07-.87-.61-1.37-1.49-1.37-.45 0-.87.16-1.15.47-.47.51-.58 1.13-.58 2.04s.11 1.54.58 2.05c.29.31.68.47 1.15.47.84 0 1.38-.5 1.49-1.35h1.32c-.16 1.55-1.32 2.52-2.77 2.52M31.535 77.14c-.84 0-1.56-.24-2.12-.8-.79-.77-1.02-1.72-1.02-2.89 0-1.16.23-2.09 1.02-2.88.56-.56 1.31-.8 2.12-.8s1.55.24 2.12.8c.8.77 1.02 1.71 1.02 2.88 0 1.16-.23 2.12-1.02 2.89-.56.56-1.31.8-2.12.8m0-1.17c.48 0 .92-.16 1.23-.47.48-.51.6-1.14.6-2.05s-.12-1.53-.6-2.04c-.31-.31-.75-.47-1.23-.47s-.92.16-1.23.47c-.48.51-.6 1.13-.6 2.04s.12 1.54.6 2.05c.31.31.75.47 1.23.47M41.352 69.91h1.78V77h-1.25v-5.42l-1.84 5.32h-.99l-1.83-5.43V77h-1.25v-7.09h1.87l1.75 5.18zM44.81 69.91h2.8c1.63 0 2.48.91 2.48 2.17 0 1.25-.85 2.18-2.48 2.18h-1.52V77h-1.28zm1.28 3.22h1.45c.87 0 1.25-.39 1.25-1.04s-.38-1.05-1.25-1.05h-1.45zM51.177 69.91h1.29v5.87h3.29V77h-4.58zM56.724 69.91h1.31V77h-1.31zM64.092 77l-.53-1.58h-2.88l-.53 1.58h-1.33l2.53-7.09h1.59l2.53 7.09zm-3.02-2.72h2.1l-1.05-3.11zM70.665 69.91h1.27V77h-1.4l-3-5.36V77h-1.27v-7.09h1.63l2.77 4.9zM75.108 71.11h-2.2v-1.2h5.69v1.2h-2.2V77h-1.29z" fill="#4A3212"></path><defs><linearGradient id="HIPAA_svg__a" x1="50" x2="50" y1="14" y2="78" gradientUnits="userSpaceOnUse"><stop offset="0.35" stop-color="#fff"></stop><stop offset="0.5" stop-color="#fff" stop-opacity="0.6"></stop><stop offset="0.65" stop-color="#fff" stop-opacity="0.1"></stop><stop offset="0.7" stop-color="#fff" stop-opacity="0"></stop></linearGradient><linearGradient id="HIPAA_svg__a" x1="50" x2="50" y1="14" y2="78" gradientUnits="userSpaceOnUse"><stop offset="0.35" stop-color="#fff"></stop><stop offset="0.5" stop-color="#fff" stop-opacity="0.6"></stop><stop offset="0.65" stop-color="#fff" stop-opacity="0.1"></stop><stop offset="0.7" stop-color="#fff" stop-opacity="0"></stop></linearGradient></defs></svg>