<svg viewBox="0 0 183 26" xmlns:xlink="http://www.w3.org/1999/xlink" xmlns="http://www.w3.org/2000/svg" width="183" height="26" fill="currentColor" aria-label="DoorDash"><path fill-rule="evenodd" d="M63.594 12.75c0-4.112-3.194-7.382-7.415-7.382l-4.995.013a.364.364 0 0 0-.358.369v14.034a.36.36 0 0 0 .358.367h4.995c4.221 0 7.415-3.289 7.415-7.4m-5.738 4.184c-.529.233-1.1.357-1.677.366h-2.265V8.216l.001-.001h2.264a4.25 4.25 0 0 1 3.098 1.328A4.47 4.47 0 0 1 60.5 12.75a4.55 4.55 0 0 1-1.242 3.194c-.396.42-.873.757-1.403.99M82.317 12.75c0-4.215-3.397-7.717-7.84-7.717-4.415 0-7.813 3.484-7.813 7.717s3.368 7.718 7.811 7.718c4.445 0 7.842-3.502 7.842-7.718m-3.455 1.878c-.738 1.815-2.47 2.994-4.387 2.988-2.612-.012-4.723-2.186-4.723-4.866.004-1.966 1.161-3.736 2.933-4.485a4.65 4.65 0 0 1 5.163 1.065 4.95 4.95 0 0 1 1.014 5.298M100.935 12.75c0-4.233-3.397-7.717-7.826-7.717-4.443 0-7.84 3.484-7.84 7.717s3.425 7.718 7.84 7.718 7.826-3.485 7.826-7.718m-3.099.004c.003 2.68-2.112 4.855-4.726 4.862a4.7 4.7 0 0 1-3.358-1.424 4.93 4.93 0 0 1-1.39-3.442c.003-2.68 2.124-4.85 4.739-4.85 2.612 0 4.732 2.172 4.735 4.854M105.371 5.381a.365.365 0 0 0-.359.369l.001.001.017 14.022a.37.37 0 0 0 .102.258.36.36 0 0 0 .256.11h2.344a.363.363 0 0 0 .358-.368v-4.777h2.679l2.672 4.975a.36.36 0 0 0 .326.199h2.434a.35.35 0 0 0 .339-.18.37.37 0 0 0-.014-.393l-2.773-5.028c1.595-.819 2.594-2.499 2.573-4.328 0-2.706-2.075-4.86-4.942-4.86zm6.665 6.625a1.85 1.85 0 0 1-.741.12h-3.193v-3.91h3.193v.003a1.87 1.87 0 0 1 1.403.567 1.97 1.97 0 0 1 .554 1.44 1.94 1.94 0 0 1-.584 1.376 1.85 1.85 0 0 1-.632.404M134.057 12.828c0-4.12-3.194-7.395-7.415-7.395l-4.98.018a.364.364 0 0 0-.358.37v14.033a.35.35 0 0 0 .102.258.36.36 0 0 0 .256.11h4.98c4.221 0 7.415-3.274 7.415-7.394m-5.737 4.179c-.53.232-1.1.355-1.678.363h-2.264V8.285l2.265.001a4.25 4.25 0 0 1 3.104 1.328 4.47 4.47 0 0 1 1.22 3.214 4.55 4.55 0 0 1-1.243 3.19c-.398.42-.875.757-1.404.989M139.55 19.884l1.147-3.234v-.002h5.55l1.147 3.234a.359.359 0 0 0 .358.254h2.487a.35.35 0 0 0 .326-.153.38.38 0 0 0 .033-.367l-5.376-14.02a.355.355 0 0 0-.359-.244h-2.783a.36.36 0 0 0-.358.243l-5.376 14.02a.373.373 0 0 0 .031.367.36.36 0 0 0 .327.156h2.488a.36.36 0 0 0 .358-.254m2.175-5.98 1.752-4.858 1.749 4.858z" clip-rule="evenodd" fill="#0A1D08"></path><path d="M158.528 5.033c-3.09 0-5.046 2.007-5.046 4.329l-.002.021c0 3.07 2.464 3.82 4.529 4.45 1.489.453 2.77.843 2.77 1.993 0 1.06-1.017 1.905-2.562 1.905a4.54 4.54 0 0 1-3.149-1.317.36.36 0 0 0-.26-.113.36.36 0 0 0-.26.113l-1.333 1.367a.37.37 0 0 0-.116.27.37.37 0 0 0 .116.271 7.22 7.22 0 0 0 5.21 2.146c3.486 0 5.458-2.025 5.461-4.7 0-3.07-2.466-3.82-4.532-4.45-1.489-.453-2.771-.843-2.771-1.992 0-.85.914-1.585 2.149-1.585.89.014 1.742.358 2.391.967a.36.36 0 0 0 .254.108.35.35 0 0 0 .255-.108l1.377-1.404a.37.37 0 0 0 0-.54 6.3 6.3 0 0 0-4.481-1.731M170.922 5.592a.4.4 0 0 1 .026.14v5.548h6.181V5.731a.361.361 0 0 1 .354-.367h2.344a.37.37 0 0 1 .333.228.4.4 0 0 1 .025.14V19.75c0 .203-.16.368-.358.368h-2.344a.364.364 0 0 1-.358-.368v-5.637h-6.177v5.637a.365.365 0 0 1-.358.368h-2.345a.365.365 0 0 1-.358-.368V5.73a.372.372 0 0 1 .22-.338.4.4 0 0 1 .138-.029h2.345a.36.36 0 0 1 .332.228M29.396 2.355c3.46-.011 6.642 1.866 8.268 4.88v-.003c4.184 7.842-1.478 15.742-8.966 15.742h-5.755c-.713.001-1.397-.28-1.904-.78l-5.707-5.665a.88.88 0 0 1-.193-.967.9.9 0 0 1 .83-.55h12.724c1.316-.013 2.37-1.075 2.356-2.373-.013-1.297-1.089-2.338-2.404-2.325H10.188c-.714 0-1.4-.28-1.904-.782l-5.703-5.66a.88.88 0 0 1 .136-1.365.9.9 0 0 1 .497-.152z" fill="#0A1D08"></path></svg>