<svg viewBox="0 0 122 25" xmlns:xlink="http://www.w3.org/1999/xlink" xmlns="http://www.w3.org/2000/svg" width="122" height="25" fill="currentColor"><path fill-rule="evenodd" d="M38.867 16.463c-.068.178.024.215.046.247.204.147.411.254.619.374 1.109.587 2.154.759 3.248.759 2.226 0 3.61-1.186 3.61-3.093v-.037c0-1.764-1.564-2.406-3.024-2.865l-.191-.062c-1.105-.358-2.059-.67-2.059-1.396v-.038c0-.622.559-1.08 1.42-1.08.958 0 2.1.318 2.83.721 0 0 .216.14.294-.069.043-.113.415-1.109.455-1.22.042-.118-.032-.206-.108-.251-.838-.51-1.995-.858-3.192-.858h-.222c-2.04 0-3.464 1.234-3.464 2.997v.038c0 1.86 1.573 2.466 3.04 2.885l.237.073c1.07.33 1.995.615 1.995 1.365v.038c0 .69-.603 1.204-1.568 1.204a5.26 5.26 0 0 1-2.869-.825c-.157-.092-.246-.158-.367-.231-.064-.04-.223-.109-.293.1l-.439 1.221m32.599 0c-.069.178.024.215.047.247.203.147.41.254.618.374 1.11.587 2.155.758 3.248.758 2.226 0 3.61-1.185 3.61-3.092v-.037c0-1.764-1.56-2.406-3.023-2.865l-.192-.062c-1.105-.358-2.058-.67-2.058-1.397v-.037c0-.622.558-1.081 1.42-1.081.958 0 2.095.319 2.829.722 0 0 .216.14.295-.069.043-.113.415-1.11.451-1.22.043-.118-.032-.206-.108-.251-.838-.511-1.995-.858-3.192-.858h-.222c-2.04 0-3.464 1.234-3.464 2.997v.038c0 1.86 1.572 2.466 3.04 2.885l.236.073c1.074.329 1.996.615 1.996 1.365v.037c0 .69-.603 1.205-1.569 1.205a5.25 5.25 0 0 1-2.868-.826c-.157-.091-.249-.154-.368-.23-.04-.026-.228-.1-.292.1l-.44 1.22m22.265-3.734c0 1.077-.201 1.927-.594 2.53-.393.594-.986.886-1.812.886s-1.416-.29-1.803-.882c-.39-.599-.587-1.453-.587-2.53s.198-1.923.587-2.518c.386-.59.973-.873 1.803-.873s1.42.286 1.812.873c.395.595.594 1.44.594 2.518m1.86-1.999a4.5 4.5 0 0 0-.846-1.616 4.05 4.05 0 0 0-1.429-1.085c-.567-.265-1.237-.4-1.995-.4q-1.138.001-1.995.4c-.567.265-1.05.63-1.428 1.085a4.5 4.5 0 0 0-.846 1.616 7 7 0 0 0-.274 2c0 .713.092 1.384.274 1.998.182.619.467 1.161.846 1.616.38.455.861.818 1.428 1.077.57.259 1.24.39 1.995.39.754 0 1.424-.131 1.991-.39a4 4 0 0 0 1.428-1.077c.38-.455.663-.997.846-1.616a7 7 0 0 0 .274-1.999c0-.71-.093-1.384-.274-1.999m15.282 5.107c-.061-.18-.237-.112-.237-.112-.27.103-.559.199-.866.247-.31.048-.655.073-1.018.073-.897 0-1.616-.268-2.126-.798-.515-.53-.802-1.385-.798-2.542.003-1.053.257-1.843.714-2.45.451-.598 1.145-.91 2.063-.91.766 0 1.352.09 1.967.282 0 0 .145.063.215-.129.163-.45.284-.774.459-1.268.05-.142-.072-.202-.116-.219a7 7 0 0 0-1.241-.314 9.4 9.4 0 0 0-1.396-.093c-.782 0-1.477.134-2.071.399a4.3 4.3 0 0 0-1.496 1.085 4.6 4.6 0 0 0-.906 1.616 6.4 6.4 0 0 0-.303 2.003c0 1.54.415 2.789 1.237 3.703.821.917 2.058 1.38 3.67 1.38.954 0 1.931-.193 2.634-.47 0 0 .134-.065.076-.222l-.459-1.26m3.252-4.15c.088-.599.252-1.098.51-1.485.386-.59.974-.913 1.8-.913s1.372.325 1.763.913c.26.39.373.906.415 1.485l-4.508-.001zm6.264-1.317a4 4 0 0 0-.806-1.472c-.407-.435-.802-.742-1.197-.91a4.6 4.6 0 0 0-1.804-.366c-.786 0-1.5.133-2.078.403a4.14 4.14 0 0 0-1.449 1.105 4.6 4.6 0 0 0-.854 1.636 7 7 0 0 0-.276 2.007c0 .726.096 1.4.286 2.011.191.615.498 1.153.913 1.6.415.451.946.802 1.584 1.05.635.245 1.405.372 2.287.37 1.819-.007 2.777-.412 3.168-.631.069-.04.135-.107.053-.3l-.411-1.154c-.063-.172-.237-.11-.237-.11-.451.169-1.089.471-2.585.467-.978-.002-1.7-.29-2.155-.742-.463-.463-.694-1.137-.73-2.095l6.304.005s.166-.002.183-.164c.007-.067.216-1.292-.188-2.709zM63.72 11.685c.089-.599.253-1.098.51-1.485.387-.59.974-.913 1.8-.913s1.373.325 1.764.913c.258.39.372.906.415 1.485l-4.51-.001zm6.264-1.317a3.9 3.9 0 0 0-.806-1.472c-.407-.435-.802-.742-1.197-.91a4.6 4.6 0 0 0-1.803-.366c-.786 0-1.5.133-2.08.403a4.14 4.14 0 0 0-1.447 1.105 4.6 4.6 0 0 0-.854 1.636 7 7 0 0 0-.276 2.007c0 .726.096 1.4.286 2.011.19.615.499 1.153.91 1.6q.624.677 1.584 1.05c.634.245 1.4.372 2.286.37 1.82-.007 2.777-.412 3.168-.631.07-.04.136-.107.053-.3l-.41-1.154c-.064-.172-.238-.11-.238-.11-.451.169-1.09.471-2.586.467-.973-.002-1.7-.29-2.154-.742-.463-.463-.695-1.137-.73-2.095l6.304.005s.166-.002.183-.164c.007-.067.216-1.292-.189-2.709zm-19.87 5.426c-.247-.197-.281-.245-.363-.373q-.188-.29-.189-.818c0-.55.184-.95.563-1.217-.004 0 .542-.47 1.827-.455q.859.016 1.708.146v2.86s-.797.173-1.7.227c-1.28.077-1.846-.369-1.843-.368zm2.506-4.428a14 14 0 0 0-.982-.028c-.539 0-1.061.067-1.548.198-.49.133-.934.338-1.313.61-.38.272-.693.627-.913 1.038q-.336.625-.337 1.453c0 .558.097 1.04.288 1.436.188.392.47.73.822.985.35.255.782.443 1.281.555q.744.17 1.668.17c.646 0 1.289-.054 1.911-.16q.795-.136 1.584-.307c.21-.049.443-.112.443-.112.156-.04.144-.206.144-.206l-.004-5.745c0-1.261-.337-2.199-1.001-2.777s-1.632-.87-2.89-.87c-.47 0-1.232.064-1.687.155 0 0-1.373.267-1.94.71 0 0-.124.077-.056.25l.447 1.197c.056.156.207.103.207.103s.047-.02.103-.052c1.21-.659 2.741-.639 2.741-.639.678 0 1.205.138 1.556.407.344.264.519.663.519 1.5v.267a22 22 0 0 0-1.037-.124zm50.673-3.244a.17.17 0 0 0 0-.133.17.17 0 0 0-.095-.093c-.107-.042-.642-.155-1.053-.18-.79-.05-1.229.084-1.624.26-.39.177-.822.46-1.062.787v-.766c0-.106-.075-.19-.181-.19h-1.612c-.105 0-.18.084-.18.19v9.376a.19.19 0 0 0 .19.191h1.653a.19.19 0 0 0 .19-.19v-4.709c0-.63.07-1.257.208-1.652.137-.39.322-.702.551-.925.218-.216.485-.376.778-.467.275-.08.56-.12.846-.12.329 0 .69.085.69.085.121.014.189-.06.23-.17.108-.287.415-1.149.475-1.32" clip-rule="evenodd" fill="#0A1D08"></path><path fill-rule="evenodd" d="M87.865 3.794a4.875 4.875 0 0 0-1.477-.214c-1.14 0-2.037.322-2.667.957-.625.63-1.05 1.59-1.264 2.854l-.077.427h-1.43s-.174-.007-.21.183l-.235 1.309c-.016.125.038.203.205.203h1.391L80.69 17.39c-.11.634-.237 1.156-.377 1.552-.138.39-.273.682-.44.895-.16.205-.312.356-.575.445a2.3 2.3 0 0 1-.74.106c-.153 0-.356-.025-.506-.055s-.227-.063-.34-.11c0 0-.162-.063-.227.1a116 116 0 0 0-.466 1.28c-.045.125.018.223.097.251.185.066.322.109.575.168a3.8 3.8 0 0 0 .922.088c.579 0 1.107-.082 1.545-.24.44-.159.823-.436 1.163-.812.366-.404.597-.829.818-1.407.218-.574.404-1.285.553-2.115l1.418-8.023h2.073s.175.006.21-.184l.236-1.308c.016-.126-.038-.204-.206-.203h-2.012c.01-.045.101-.753.332-1.42.099-.284.284-.514.442-.671.146-.15.327-.263.527-.328.218-.068.446-.1.675-.097.19 0 .376.022.517.052.195.041.271.063.322.078.205.063.233.002.273-.097l.481-1.321c.05-.142-.07-.202-.115-.22m-28.12 13.613c0 .105-.075.19-.18.19h-1.669c-.106 0-.18-.085-.18-.19V3.973c0-.105.074-.19.18-.19h1.67c.104 0 .18.085.18.19zM14.459 4.675a5.08 5.08 0 0 1 3.685-1.594c1.923 0 3.59 1.077 4.486 2.681a6.15 6.15 0 0 1 2.532-.544c3.46 0 6.27 2.854 6.27 6.376s-2.81 6.376-6.27 6.376a6.3 6.3 0 0 1-1.24-.124c-.784 1.411-2.285 2.37-3.994 2.37a4.5 4.5 0 0 1-2.008-.466c-.796 1.885-2.65 3.21-4.807 3.21-2.254 0-4.166-1.433-4.903-3.447a4.8 4.8 0 0 1-.998.105c-2.681 0-4.85-2.218-4.85-4.943 0-1.831.977-3.425 2.425-4.287a5.7 5.7 0 0 1-.465-2.261c0-3.145 2.532-5.687 5.651-5.687a5.61 5.61 0 0 1 4.487 2.24" clip-rule="evenodd" fill="#0A1D08"></path></svg>