<svg viewBox="0 0 156 52" xmlns:xlink="http://www.w3.org/1999/xlink" xmlns="http://www.w3.org/2000/svg" width="156" height="52" fill="currentColor" aria-label="McKinsey and Company"><path d="M18.588 2.25h4.617v.87h-.87q-.227 0-.8.523c-.381.347-.572.62-.572.799v13.26q0 .273.573.8.572.526.8.526h.87v.866h-6.814v-.874h.87q.229 0 .78-.526.55-.525.55-.8V4.855L12.187 20.21 5.792 4.59v13.108q0 .274.546.8c.362.35.627.526.78.526h.865v.866H2.5v-.87h.87q.273 0 .823-.526.548-.525.546-.8V4.442q-.002-.271-.546-.8c-.363-.35-.64-.522-.823-.522H2.5v-.87h5.117l5.304 13.21h.136zm10.97 15.858a4.16 4.16 0 0 0 2.239-.5 4.4 4.4 0 0 0 1.369-1.509h.733a6.6 6.6 0 0 1-1.806 2.968 4.8 4.8 0 0 1-3.358 1.1 4.64 4.64 0 0 1-3.794-1.74 6.37 6.37 0 0 1-1.416-4.157 6.08 6.08 0 0 1 1.595-4.434 5.16 5.16 0 0 1 3.838-1.646 5.8 5.8 0 0 1 2.285.413c.659.281 1.263.677 1.782 1.17L31.36 12.39l-.686.043a4.63 4.63 0 0 0-.137-2.34 1.7 1.7 0 0 0-1.829-1.03 2.82 2.82 0 0 0-2.515 1.233 5.8 5.8 0 0 0-.823 3.249 4.87 4.87 0 0 0 1.119 3.244 3.84 3.84 0 0 0 3.07 1.319m11.334 1.782h-6.903v-.87h.881q.274 0 .823-.526c.367-.351.546-.616.546-.8V4.442q.002-.271-.546-.8c-.367-.35-.651-.522-.823-.522h-.881v-.87h6.903v.87h-.87q-.273 0-.823.523c-.367.347-.546.62-.546.799v7.223l6.306-7.04c.121-.152 0-.44-.32-.865-.32-.426-.58-.64-.733-.64h-.846v-.87h6.396v.87h-.87c-.43.148-.824.383-1.158.69-.612.472-.975.78-1.1.893l-4.29 4.614 6.17 8.19q.451.526 1.026.913c.306.281.675.486 1.076.596h1.28c.302-.062.576-.223.78-.456q.502-.46.502-.78v-7.211q0-.276-.503-.733a1.4 1.4 0 0 0-.78-.457h-.69v-.87h4.068v9.279q0 .32.526.78c.202.221.463.38.753.456h1.42c.152 0 .39-.152.729-.456.34-.304.503-.566.503-.78v-7.22q0-.274-.503-.732-.502-.457-.73-.457h-.733v-.87h3.612L61 10.83a19.6 19.6 0 0 1 1.989-1.829 3.9 3.9 0 0 1 2.488-.78 3.12 3.12 0 0 1 2.266.917 3.17 3.17 0 0 1 .936 2.375v6.275q0 .32.503.78c.336.308.577.456.73.456h.733v.866h-5.987v-.87h.632c.303-.063.576-.223.78-.456q.503-.46.503-.78v-6.12a2.13 2.13 0 0 0-.46-1.415 1.68 1.68 0 0 0-1.369-.55 4.3 4.3 0 0 0-2.492.893Q61 11.482 61 12.078v5.71q0 .32.503.78c.203.233.477.393.78.456h.64v.866H46.57l-6.135-8.818-1.782 1.919v4.707q-.002.274.546.8.55.526.823.526h.87zm6.123 19.89-.055-.055q.873.731 1.763 1.463.889.73 1.895 1.42h1.05v.912h-1.92a6 6 0 0 1-2.285-.41 7.4 7.4 0 0 1-2.102-1.42 6.8 6.8 0 0 1-2.445 1.58 9.5 9.5 0 0 1-3.311.523 5.92 5.92 0 0 1-3.9-1.44 4.68 4.68 0 0 1-1.74-3.77 6.14 6.14 0 0 1 .78-3.062 6.6 6.6 0 0 1 2.075-2.239 8.2 8.2 0 0 1-1.03-1.692 4.9 4.9 0 0 1-.39-2.009 3.7 3.7 0 0 1 1.14-2.901 4.48 4.48 0 0 1 3.115-1.03 5.6 5.6 0 0 1 1.923.273c.407.168.84.261 1.28.277q.253.007.502-.047a.55.55 0 0 0 .32-.273h.78v4.158h-.78a3.77 3.77 0 0 0-1.17-2.239 3.7 3.7 0 0 0-2.901-1.326 3.48 3.48 0 0 0-2.243.663 2.25 2.25 0 0 0-.823 1.849c-.005.687.24 1.353.687 1.876a4.5 4.5 0 0 0 1.829 1.279 71 71 0 0 0 3.654 3.678q1.966 1.845 3.748 3.451a5.8 5.8 0 0 0 .71-1.689c.142-.64.212-1.294.206-1.95a2.48 2.48 0 0 0-.756-1.899 2.84 2.84 0 0 0-2.032-.706v-.885h6.271v.823h-.682c-.153 0-.453.257-.894.78a2.3 2.3 0 0 0-.663 1.142v.047a9.4 9.4 0 0 1-.456 2.582 8 8 0 0 1-1.15 2.258zm-5.987 2.652c.721.01 1.44-.098 2.126-.32a6.7 6.7 0 0 0 1.712-.862l-.137-.09q-1.95-1.74-3.837-3.564a65 65 0 0 1-3.659-3.842c-.435.457-.79.985-1.049 1.56a5.4 5.4 0 0 0-.366 2.192 4.56 4.56 0 0 0 1.669 3.405c.942.94 2.21 1.48 3.541 1.51zM53.641 5.725a1.45 1.45 0 0 1-1.026-.413 1.32 1.32 0 0 1-.437-1.006v-.043a1.36 1.36 0 0 1 .437-1.077 1.68 1.68 0 0 1 2.145 0 1.36 1.36 0 0 1 .437 1.077h-.047c.031 0 .047 0 .047.043a1.32 1.32 0 0 1-.437 1.006c-.26.262-.613.41-.983.413zM65.29 42.331a6.06 6.06 0 0 0 3.565-.913A7 7 0 0 0 71 38.766h.92a7.8 7.8 0 0 1-2.699 3.724 7.24 7.24 0 0 1-4.43 1.35 7.54 7.54 0 0 1-6.08-2.73 9.8 9.8 0 0 1-2.286-6.513 10 10 0 0 1 2.102-6.4 7.02 7.02 0 0 1 5.804-2.648 6.8 6.8 0 0 1 2.425.39c.655.258 1.352.39 2.056.39.22.01.438-.03.64-.117q.256-.132.456-.34h.64v6.221h-.78a6.55 6.55 0 0 0-1.416-3.428 4.52 4.52 0 0 0-3.932-2.055 4.83 4.83 0 0 0-3.611 1.349 6.76 6.76 0 0 0-1.56 4.317v-.09q-.047.504-.07 1.007c0 .335-.024.682-.024 1.049 0 .425 0 .862.047 1.303s.063.846.09 1.212a6.46 6.46 0 0 0 1.782 3.951 5.54 5.54 0 0 0 4.216 1.623m14.43-25.64a3.24 3.24 0 0 1-1.03 2.56 3.8 3.8 0 0 1-2.628.916 4.35 4.35 0 0 1-1.83-.343 3.4 3.4 0 0 0-1.462-.344.8.8 0 0 0-.499.113l-.367.297h-.53v-4.021h.686a3.7 3.7 0 0 0 1.073 2.06 3.66 3.66 0 0 0 2.948 1.278c.572.03 1.141-.097 1.646-.366a1.29 1.29 0 0 0 .593-1.17 1.5 1.5 0 0 0-.706-1.392 12 12 0 0 0-1.44-.757c-.428-.18-.814-.347-1.17-.5a57 57 0 0 0-1.212-.502 6 6 0 0 1-1.736-1.213 2.61 2.61 0 0 1-.686-1.896 2.96 2.96 0 0 1 .917-2.34 4.34 4.34 0 0 1 4.087-.503 2.9 2.9 0 0 0 1.26.3.95.95 0 0 0 .39-.07.5.5 0 0 0 .253-.253h.593v3.51h-.687a3.32 3.32 0 0 0-.936-1.83 3.12 3.12 0 0 0-2.535-1.142 2.23 2.23 0 0 0-1.486.413 1.32 1.32 0 0 0-.48 1.05 1.26 1.26 0 0 0 .504 1.095q.65.451 1.369.78c.429.18.83.348 1.213.5l1.256.503a6.2 6.2 0 0 1 1.782 1.142 2.73 2.73 0 0 1 .87 2.114zm2.991 16.728a5.72 5.72 0 0 1 1.716 4.388 5.78 5.78 0 0 1-1.716 4.41 5.58 5.58 0 0 1-3.95 1.623 5.64 5.64 0 0 1-4.002-1.623 5.78 5.78 0 0 1-1.712-4.41 5.67 5.67 0 0 1 5.714-5.987 5.63 5.63 0 0 1 3.97 1.599zm-.55 6.271v.09c.032-.336.051-.67.067-1.006q.023-.503.023-1.007c0-.335 0-.659-.023-.978-.024-.32-.035-.62-.067-.894a3.8 3.8 0 0 0-.982-2.238 3.2 3.2 0 0 0-2.399-.823 3.12 3.12 0 0 0-2.34.823 3.74 3.74 0 0 0-.983 2.192v-.059a7 7 0 0 0-.113.96c0 .335-.023.67-.023 1.002s0 .663.023.983q.021.451.113.893c.09.815.434 1.582.983 2.192a3.04 3.04 0 0 0 2.34.87 3.12 3.12 0 0 0 2.422-.847 3.9 3.9 0 0 0 .96-2.153m3.748-19.5a4.73 4.73 0 0 1-3.771-1.759 6.28 6.28 0 0 1-1.486-4.184 6.31 6.31 0 0 1 1.51-4.29 4.63 4.63 0 0 1 3.747-1.693 3.87 3.87 0 0 1 2.992 1.17 4.35 4.35 0 0 1 1.17 2.812l.046.823-7.589.608a4.86 4.86 0 0 0 1.092 3.003 3.58 3.58 0 0 0 3.015 1.44 4.3 4.3 0 0 0 2.262-.5 4.04 4.04 0 0 0 1.35-1.466h.686a6.2 6.2 0 0 1-1.74 2.948 4.72 4.72 0 0 1-3.284 1.065zm-.047-11.06a2.86 2.86 0 0 0-2.581 1.209 4.85 4.85 0 0 0-.847 2.539l5.714-.488a4.8 4.8 0 0 0-.254-2.266q-.375-1.014-2.032-1.018zm13.803 33.54q.274 0 .752-.48.48-.48.48-.753v-6.24a2.05 2.05 0 0 0-.433-1.349 1.7 1.7 0 0 0-1.392-.526 3.74 3.74 0 0 0-2.22.822q-1.119.828-1.119 1.373v5.94q0 .274.48.753.481.48.71.48h.686v.869h-5.85v-.87h.64q.274 0 .753-.48.48-.479.48-.752v-6.24a2.06 2.06 0 0 0-.457-1.396 1.72 1.72 0 0 0-1.373-.527 3.7 3.7 0 0 0-2.262.87q-1.12.866-1.12 1.462v5.85q0 .274.48.753.481.48.757.48h.64v.87h-5.85v-.87h.686c.152 0 .39-.16.706-.48s.48-.57.48-.753v-7.28c0-.18-.16-.426-.48-.73q-.479-.456-.706-.456h-.686v-.87h3.51l.456 2.196q1.005-1.054 1.83-1.763a3.47 3.47 0 0 1 2.34-.706 3.36 3.36 0 0 1 2.008.616 2.58 2.58 0 0 1 1.053 1.806 27 27 0 0 1 1.918-1.693 3.6 3.6 0 0 1 2.286-.686 3.18 3.18 0 0 1 2.239.846 3.13 3.13 0 0 1 .916 2.402v6.24q0 .274.48.753.479.48.706.48h.686v.87h-5.85v-.87zm-7.633-31.98a3.1 3.1 0 0 0-.71-.78c-.39-.336-.647-.503-.78-.503h-.503V8.51h6.17v.87h-.73q-.228 0-.592.456a1.35 1.35 0 0 0-.367.78l2.73 5.62 2.516-5.577a1.14 1.14 0 0 0-.343-.823q-.39-.457-.62-.457h-.753v-.87h4.618v.87h-.503q-.23 0-.71.48c-.251.228-.46.499-.616.8l-3.9 8.271-3.354 6.447-.995-.507 3.471-6.263zm20.705 21.161a3.87 3.87 0 0 1 3.288 1.6 6.9 6.9 0 0 1 1.17 4.203 7.02 7.02 0 0 1-1.326 4.388 4.08 4.08 0 0 1-3.381 1.74 4.4 4.4 0 0 1-2.399-.574 4.7 4.7 0 0 1-1.532-1.712v5.483c0 .215.167.472.503.78s.581.457.733.457h.737v.834h-6.022v-.87h.734a1.33 1.33 0 0 0 .752-.456c.255-.188.427-.468.48-.78V34.195q0-.271-.48-.73a1.33 1.33 0 0 0-.752-.456h-.734v-.916h3.702l.366 2.379a5.64 5.64 0 0 1 1.759-2.012 4.3 4.3 0 0 1 2.402-.64zm2.286 7.722.09-.912q.046-.456.046-.913a7 7 0 0 0-.046-.8q-.049-.388-.09-.756a3.9 3.9 0 0 0-.917-2.169 2.52 2.52 0 0 0-1.95-.78 3.06 3.06 0 0 0-2.285.89 5.46 5.46 0 0 0-1.279 2.215v2.972a3.12 3.12 0 0 0 .959 2.285 3.18 3.18 0 0 0 2.34.96h.047a2.73 2.73 0 0 0 2.192-.847 4.1 4.1 0 0 0 .893-2.219zm25.822 1.876q0 .274.503.753.502.48.729.48h.687v.87h-5.987v-.87h.663c.156 0 .39-.16.733-.48s.503-.57.503-.753v-6.2c.016-.5-.136-.99-.433-1.393a1.59 1.59 0 0 0-1.349-.574 4.24 4.24 0 0 0-2.492.913q-1.26.92-1.256 1.463v5.76q0 .32.503.78c.203.233.477.393.78.456h.671v.87h-9.703l-.32-2.375a13.7 13.7 0 0 1-1.599 1.759 3.12 3.12 0 0 1-2.196.846 2.81 2.81 0 0 1-2.055-.87 3.03 3.03 0 0 1-.87-2.238 2.58 2.58 0 0 1 1.256-2.446 9.3 9.3 0 0 1 2.445-.982l2.972-.597.047-1.369a2.73 2.73 0 0 0-.64-1.895 2.85 2.85 0 0 0-2.195-.71 2.09 2.09 0 0 0-1.989.912 2.604 2.604 0 0 0 .117 2.379h-.823l-1.56-2.285a6.4 6.4 0 0 1 4.754-1.83 5.38 5.38 0 0 1 3.155.894 2.952 2.952 0 0 1 1.279 2.582v6.123q0 .273.503.73c.336.303.578.46.73.46h1.372c.304-.064.578-.226.78-.46q.504-.457.504-.73v-7.227q0-.271-.504-.73a1.4 1.4 0 0 0-.78-.456h-.686v-.916h3.611l.457 2.379a21 21 0 0 1 1.95-1.83 3.86 3.86 0 0 1 2.511-.78 3.12 3.12 0 0 1 2.262.914 3.16 3.16 0 0 1 .94 2.378zm-15.768-4.052-2.73.686a2.54 2.54 0 0 0-1.509.843 2.34 2.34 0 0 0-.414 1.396v.043a1.76 1.76 0 0 0 .503 1.26 1.65 1.65 0 0 0 1.237.522h.066a2.58 2.58 0 0 0 1.646-.682 5.1 5.1 0 0 0 1.17-1.326zm29.067-5.257v.87h-.55q-.182 0-.663.48a6 6 0 0 0-.663.752l-3.838 8.319-3.428 6.4-.959-.504 3.428-6.263-4.021-7.905a3.2 3.2 0 0 0-.71-.78c-.39-.336-.632-.503-.753-.503h-.549v-.866h6.169v.87h-.686q-.23 0-.616.456a1.32 1.32 0 0 0-.39.78l2.73 5.624 2.527-5.64a1.06 1.06 0 0 0-.343-.78q-.387-.456-.616-.456h-.73v-.854z" fill="#0A1D08"></path></svg>