<svg xmlns:xlink="http://www.w3.org/1999/xlink" xmlns="http://www.w3.org/2000/svg" fill="currentColor" viewBox="0 0 24 24" class="text-meadow-700 h-14 w-14" width="56"  height="56" ><path d="M7 7.396c0-1.432 0-2.148.3-2.548a1.5 1.5 0 0 1 1.093-.597c.498-.035 1.1.352 2.305 1.126l7.162 4.604c1.045.672 1.567 1.008 1.748 1.435a1.5 1.5 0 0 1 0 1.168c-.18.427-.703.763-1.748 1.435l-7.162 4.604c-1.205.774-1.807 1.161-2.305 1.126A1.5 1.5 0 0 1 7.3 19.15C7 18.751 7 18.036 7 16.604z" fill="#203B14"></path></svg>