<svg viewBox="0 0 113 29" xmlns:xlink="http://www.w3.org/1999/xlink" xmlns="http://www.w3.org/2000/svg" width="113" height="29" fill="currentColor"><path d="m99.273 11.22 2.977 3.072h8.463v-1.724h-8.306l7.157-4.313-.836-1.509-7.157 4.312 4.127-7.438-1.41-.863-4.18 7.439v-8.57h-1.671v8.57L94.31 2.757l-1.463.863 4.127 7.438-7.157-4.312-.836 1.51 7.157 4.312h-8.306v1.724h8.463zM79.683 17.528l3.343-4.312-1.358-1.078-3.396 4.527h-1.567V8.472h-1.776v14.123h1.776V18.39h1.567l3.187 4.205h2.194z" fill="#6B7860"></path><path fill-rule="evenodd" d="M37.191 14.02c.888-1.078 2.142-1.67 3.657-1.67 1.358 0 2.507.484 3.5 1.508.94.97 1.41 2.264 1.41 3.72 0 1.509-.47 2.749-1.41 3.773s-2.09 1.51-3.5 1.51c-1.567 0-2.769-.54-3.657-1.672v1.456h-1.776V8.522h1.776zm0 3.612c0 1.024.313 1.832.94 2.48.627.646 1.41.97 2.403.97s1.776-.324 2.404-.97c.626-.648.94-1.456.94-2.48s-.314-1.833-.94-2.48c-.628-.7-1.463-1.024-2.404-1.024-.992 0-1.724.323-2.403 1.024-.626.647-.94 1.456-.94 2.48M11.509 10.95c-1.254-1.239-2.874-1.886-4.754-1.886H1.688v13.53h5.067c1.88 0 3.5-.647 4.754-1.94q1.88-1.94 1.88-4.852 0-2.91-1.88-4.851m-1.359 8.356c-.888.916-2.037 1.401-3.395 1.401H3.568v-9.81h3.187c1.358 0 2.455.485 3.395 1.401.889.917 1.359 2.102 1.359 3.504 0 1.401-.47 2.587-1.359 3.504M17.935 22.81c1.201 0 2.298-.485 2.925-1.348v1.132h2.873v-1.671H22.48v-8.409h-7.47v1.779h5.694v1.779h-2.768q-1.567 0-2.508.97c-.68.647-.992 1.455-.992 2.372 0 .97.313 1.778.992 2.425q1.02.97 2.508.97m.209-1.671c-1.097 0-1.933-.701-1.933-1.725 0-.97.836-1.671 1.933-1.671h2.56v1.51c0 1.131-1.046 1.886-2.56 1.886M53.875 13.807c.993-1.024 2.247-1.509 3.71-1.509 1.462 0 2.664.54 3.708 1.563.94.97 1.463 2.21 1.463 3.72 0 .075-.011.173-.023.278-.014.122-.03.253-.03.368v.054l-.051.054h-8.307c.157.809.523 1.51 1.098 1.995a3.26 3.26 0 0 0 2.194.808c1.358 0 2.507-.7 3.03-1.833v-.053h1.932l-.052.107c-.679 2.103-2.664 3.45-4.963 3.45a5.17 5.17 0 0 1-3.709-1.509c-.992-1.024-1.462-2.264-1.462-3.773 0-1.456.47-2.695 1.462-3.72m7 2.911c-.365-1.617-1.671-2.695-3.29-2.695-1.672 0-2.926 1.024-3.24 2.695zM67.562 22.81c1.202 0 2.299-.485 2.926-1.348v1.132h2.873v-1.671h-1.254v-8.409h-7.47v1.779h5.694v1.779h-2.769q-1.566 0-2.507.97c-.68.647-.993 1.455-.993 2.372 0 .97.314 1.778.993 2.425q1.019.97 2.507.97m.21-1.671c-1.098 0-1.934-.701-1.934-1.725 0-.97.836-1.671 1.933-1.671h2.56v1.51c0 1.131-1.045 1.886-2.56 1.886" clip-rule="evenodd" fill="#6B7860"></path><path d="m25.822 12.514 3.186 7.762 3.187-7.762h1.985l-2.037 4.798-4.232 9.864-1.619-.755 1.724-3.935-4.18-9.972zM47.188 22.594h1.776v-8.247H52.1v-1.833h-4.91z" fill="#6B7860"></path></svg>