<svg viewBox="0 0 117 24" xmlns:xlink="http://www.w3.org/1999/xlink" xmlns="http://www.w3.org/2000/svg" width="117" height="24" fill="currentColor"><path fill-opacity="0.5" d="M2.469 7.148a4.356 4.356 0 0 1 4.356-4.356h4.356v8.712H6.825a4.356 4.356 0 0 1-4.356-4.356" fill="#6B7860"></path><path fill-opacity="0.8" d="M19.893 15.86a4.356 4.356 0 0 0-4.356-4.356H11.18v8.712h4.356a4.356 4.356 0 0 0 4.356-4.356" fill="#6B7860"></path><path fill-opacity="0.3" d="M11.18 15.86a4.356 4.356 0 1 0-8.711 0 4.356 4.356 0 0 0 8.712 0" fill="#6B7860"></path><path fill-opacity="0.65" d="M19.893 7.148a4.356 4.356 0 1 0-8.712 0 4.356 4.356 0 0 0 8.712 0" fill="#6B7860"></path><path d="M26.971 13.94h.712q.105.643.538 1.303.45.66 1.146 1.11.712.435 1.545.435.902 0 1.562-.486t.66-1.459q0-.729-.47-1.18-.45-.45-1.405-.781l-1.233-.434q-1.51-.52-2.239-1.337-.711-.815-.712-2.152 0-1.095.504-1.892.503-.815 1.388-1.25.902-.435 2.066-.434.712 0 1.528.295.069.017.312.104.261.07.504.07.242 0 .33-.087a.5.5 0 0 0 .155-.243h.573l.174 2.968h-.712q-.26-1.197-1.059-1.91a2.7 2.7 0 0 0-1.874-.728q-.903 0-1.51.486a1.53 1.53 0 0 0-.608 1.25q0 .555.33.937.347.365.694.52.364.157 1.042.4l1.544.555q2.622.956 2.622 3.368 0 1.284-.59 2.17a3.7 3.7 0 0 1-1.528 1.302 4.8 4.8 0 0 1-1.962.416q-.832 0-1.944-.347a7 7 0 0 1-.347-.087 1.4 1.4 0 0 0-.434-.087q-.382 0-.52.313h-.573z" fill="#6B7860"></path><path d="M43.866 8.89v.572q-.365 0-.59.191-.225.173-.487.764L40.1 16.84q-.19.434-.365.92-.416 1.041-.729 1.632a2.7 2.7 0 0 1-.764.954q-.468.382-1.163.382-.71 0-1.25-.503-.537-.486-.537-1.18 0-.487.33-.851.346-.348.867-.347.54 0 .85.312.314.313.313.799a.74.74 0 0 1-.156.486q-.139.19-.139.295a.38.38 0 0 0 .07.243.28.28 0 0 0 .225.104q.192 0 .486-.434.313-.417.66-1.267l.364-.903-3.02-7.308q-.139-.347-.26-.486a.47.47 0 0 0-.313-.173q-.19-.053-.625-.053V8.89h4.913v.572h-.504a.4.4 0 0 0-.26.087q-.087.087-.087.26 0 .14.052.296l1.459 3.853h.052l1.596-3.975a.46.46 0 0 0 .053-.208.28.28 0 0 0-.105-.226q-.086-.087-.26-.087h-.503V8.89z" fill="#6B7860"></path><path d="M58.32 15.607q0 .382.069.556a.42.42 0 0 0 .277.243q.21.07.66.07v.572h-4.635v-.573q.555 0 .712-.139.156-.156.156-.642v-4.166q0-.972-.312-1.389-.313-.434-.886-.434-.554 0-.902.382-.348.365-.469 1.007v4.513q0 .382.052.556a.42.42 0 0 0 .243.243q.191.07.608.07v.572h-4.496v-.573q.382 0 .556-.052a.36.36 0 0 0 .225-.226q.052-.156.052-.503v-4.166q0-.99-.295-1.406-.278-.417-.833-.417-.382 0-.694.191-.296.174-.747.625v5.086q0 .556.174.712.173.156.764.156v.573H43.79v-.573q.504 0 .73-.052.225-.069.294-.243.087-.174.087-.573V10.4q0-.348-.104-.452-.086-.12-.4-.121h-.607v-.573l2.864-.451h.92v1.145h.018a4.1 4.1 0 0 1 1.145-.92q.66-.347 1.632-.347.938 0 1.545.347.626.348.885.972.4-.676 1.042-.99.66-.329 1.649-.329 1.371 0 2.1.677.73.66.73 2.17zM65.182 8.681q1.632 0 2.534 1.06.92 1.04.92 3.037 0 2.153-1.163 3.315-1.146 1.163-3.211 1.163-.764 0-1.389-.208a6 6 0 0 1-1.25-.573l-.572.573h-.955V6.668q0-.348-.104-.452-.087-.12-.4-.121h-.607v-.59L61.9 5.07h.955v4.46h.017a3.5 3.5 0 0 1 1.024-.624q.538-.226 1.285-.226m-1.007 8.003q.573 0 .903-.348.347-.363.503-1.145.156-.8.156-2.187 0-1.667-.364-2.552-.365-.885-1.18-.885-.66 0-1.337.746v5.798q.624.573 1.32.573M73.608 17.256q-2.274 0-3.385-1.059-1.093-1.058-1.093-3.21 0-2.189 1.11-3.247 1.13-1.059 3.403-1.059 2.239 0 3.333 1.059 1.093 1.042 1.093 3.211 0 2.187-1.093 3.246-1.095 1.06-3.368 1.06m.017-.555q.816 0 1.18-.816.365-.833.365-2.656 0-2.118-.347-3.055t-1.232-.937q-.85 0-1.215.954-.348.938-.348 2.847 0 1.979.348 2.83.365.833 1.25.833" fill="#6B7860"></path><path d="M78.065 16.475q.502 0 .729-.052.226-.069.295-.243.087-.172.087-.573v-8.94q0-.346-.105-.45-.086-.123-.399-.122h-.607v-.573l2.95-.451h.92v10.536q0 .555.174.712t.764.156v.573h-4.808zM85.534 7.97q-.642 0-1.146-.452a1.44 1.44 0 0 1-.486-1.093q0-.625.486-1.077.504-.468 1.146-.468.625 0 1.11.468.504.451.504 1.077 0 .624-.486 1.093-.486.452-1.128.452m-2.413 8.505q.504 0 .73-.052.225-.069.294-.243.087-.174.087-.573V10.4q0-.347-.104-.452-.087-.12-.4-.121h-.607v-.573l2.916-.451h.955v6.804q0 .555.174.712.173.156.763.156v.573h-4.808zM92.362 17.256q-1.944 0-3.02-1.076-1.06-1.094-1.06-3.107 0-2.118 1.164-3.246 1.162-1.146 3.142-1.146 1.475 0 2.29.59.817.59.817 1.528 0 .555-.313.902-.312.348-.972.348-.572 0-.92-.26-.33-.279-.33-.8 0-.294.14-.572.103-.278.103-.434a.65.65 0 0 0-.225-.52q-.21-.21-.66-.209-.468 0-.764.278-.278.277-.434.99-.138.693-.138 1.96 0 1.441.19 2.257.21.8.608 1.129.417.312 1.128.312.868 0 1.337-.4.486-.398.868-1.232l.625.295a6.7 6.7 0 0 1-.66 1.198q-.346.486-1.059.85-.711.366-1.857.365M98.421 17.204a1.36 1.36 0 0 1-1.371-1.371q0-.555.4-.972.416-.417.971-.417.556 0 .972.417.417.399.417.972 0 .555-.417.972-.399.4-.972.4M109.826 16.683q-.504.33-1.042.452a5 5 0 0 1-1.146.121q-.624 0-1.041-.208a1.76 1.76 0 0 1-.625-.52q-1.006.728-2.43.728-2.57 0-2.569-1.927 0-1.145 1.267-1.909 1.284-.78 3.559-1.198v-1.44q0-.781-.243-1.129-.226-.364-.851-.364-.382 0-.625.121-.243.105-.243.33 0 .105.052.208a1 1 0 0 1 .087.122q.243.33.243.677 0 .468-.382.833-.364.364-.972.364t-.972-.347a1.1 1.1 0 0 1-.347-.798q0-.504.399-.972.399-.486 1.302-.816.92-.33 2.343-.33 1.563 0 2.274.73.712.728.712 2.186V15.4q0 .572.087.764a.3.3 0 0 0 .295.19q.294 0 .469-.086.173-.105.191-.122zm-6.076-1.614q0 .694.243.99.243.277.747.277.486 0 1.059-.416v-2.951q-1.077.33-1.563.85-.486.503-.486 1.25" fill="#6B7860"></path><path d="M112.015 7.97q-.643 0-1.146-.452a1.44 1.44 0 0 1-.486-1.093q0-.625.486-1.077.503-.468 1.146-.468.624 0 1.11.468.504.451.504 1.077 0 .624-.486 1.093-.486.452-1.128.452m-2.413 8.505q.503 0 .729-.052.226-.069.295-.243.086-.174.087-.573V10.4q0-.347-.105-.452-.087-.12-.399-.121h-.607v-.573l2.916-.451h.955v6.804q0 .555.173.712.174.156.764.156v.573h-4.808z" fill="#6B7860"></path></svg>