<svg viewBox="0 0 41 25" xmlns:xlink="http://www.w3.org/1999/xlink" xmlns="http://www.w3.org/2000/svg" width="41" height="25" fill="currentColor"><path d="M15.814 18.67c-.057-.352-1.597-.72-1.318.303.892 3.305 3.595 4.72 6.281 4.695 2.686.025 5.397-1.39 6.281-4.695.279-1.023-1.26-.655-1.318-.303-.68 4.074-9.246 4.074-9.926 0M38.9 10.187h-3.16v3.55c0 .843.49 1.39 1.334 1.39.565 0 1.09-.13 1.826-.506v1.963c-.958.393-1.678.54-2.522.54-1.81 0-3.374-.818-3.374-3.231v-3.706h-1.245v-.524l3.636-4.041h.344v2.716H38.9zm-7.837-1.85v1.85h-1.245v6.773h-2.727v-6.773h-1.245v-1.85h1.245v-.433c0-2.544 1.597-3.87 3.8-3.87.532 0 1.245.115 1.663.173V6.39c-.721-.09-.926-.115-1.229-.115-.843 0-1.507.377-1.507 1.514v.548zm-6.592 8.623h-2.736V8.338h2.736zm.13-11.428a1.51 1.51 0 0 1-1.506 1.497 1.51 1.51 0 0 1-1.507-1.497c0-.826.68-1.497 1.507-1.497s1.507.67 1.507 1.497M19.836 16.96h-2.727V8.338h2.727zm.131-11.428c0 .818-.68 1.497-1.507 1.497a1.51 1.51 0 0 1-1.506-1.497c0-.826.68-1.497 1.506-1.497.828 0 1.507.67 1.507 1.497m-5.257 2.34c-1.638-.786-3.219-1.178-4.8-1.178-3.488 0-4.708 2.127-4.708 4.016 0 2.266 1.785 3.763 4.438 3.763.795 0 1.188-.082 2.13-.45v-1.497h-1.86v-2.34h5.062v5.22c-.958.99-3.333 1.718-5.405 1.718-4.48 0-7.666-2.708-7.666-6.528 0-3.886 3.162-6.561 7.74-6.561 1.924 0 3.791.433 5.069 1.047z" fill="#6B7860"></path></svg>