<svg viewBox="0 0 82 25" xmlns:xlink="http://www.w3.org/1999/xlink" xmlns="http://www.w3.org/2000/svg" width="82" height="25" fill="currentColor"><path d="M12.825 22.405a1.36 1.36 0 0 1-1.364-1.354c0-.742.616-1.354 1.364-1.354.747 0 1.363.611 1.363 1.354 0 .742-.616 1.354-1.364 1.354M5.979 22.763v-.105c0-3.747 3.07-6.795 6.846-6.795h.096v2.707h-.096c-2.27 0-4.11 1.835-4.11 4.08v.096H5.98zM19.987 17.234q-.211-.002-.422-.07a1.363 1.363 0 0 1-.88-1.712 1.36 1.36 0 0 1 1.724-.865c.713.228 1.109.996.88 1.712a1.36 1.36 0 0 1-1.302.935M19.424 22.833a6.76 6.76 0 0 1-3.977-3.38 6.72 6.72 0 0 1-.414-5.18l.027-.096 2.595.838-.026.096c-.704 2.14.484 4.446 2.64 5.145l.096.026-.844 2.577zM17.25 8.866a1.33 1.33 0 0 1-.8-.262 1.3 1.3 0 0 1-.546-.882 1.35 1.35 0 0 1 .247-1.013c.255-.35.668-.56 1.108-.56.29 0 .563.088.801.263.3.21.493.524.546.882.052.358-.027.716-.247 1.013-.255.35-.669.56-1.109.56M18.2 12.998a6.8 6.8 0 0 1-4.012-1.293l-.079-.061L15.71 9.45l.08.062a4.1 4.1 0 0 0 3.062.725 4.1 4.1 0 0 0 2.683-1.634l.062-.078 2.208 1.59-.061.078a6.88 6.88 0 0 1-5.543 2.804M8.39 8.866c-.44 0-.854-.21-1.109-.559a1.4 1.4 0 0 1-.246-1.013c.053-.358.255-.673.545-.882.238-.166.51-.262.801-.262.44 0 .854.21 1.109.559.211.297.299.655.246 1.013a1.33 1.33 0 0 1-.545.882c-.238.175-.51.262-.801.262M9.771 9.565l.08-.061a4.07 4.07 0 0 0 1.645-2.664 4.03 4.03 0 0 0-.73-3.04l-.062-.078 2.209-1.59.061.078a6.74 6.74 0 0 1 1.223 5.058c-.281 1.79-1.258 3.363-2.736 4.437l-.08.061zM5.654 17.234a1.37 1.37 0 0 1-1.303-.935 1.363 1.363 0 0 1 .88-1.712c.141-.043.282-.07.423-.07.59 0 1.117.376 1.302.935a1.363 1.363 0 0 1-.88 1.712c-.14.044-.282.07-.422.07M8.012 15.111a4.08 4.08 0 0 0-2.042-2.375 4.1 4.1 0 0 0-1.865-.446c-.431 0-.862.07-1.276.201l-.088.035-.845-2.585.097-.027a6.8 6.8 0 0 1 2.12-.332c1.083 0 2.121.254 3.098.743a6.78 6.78 0 0 1 3.405 3.957l.027.096-2.596.838zM66.48 13.068c-.237.69-.422 1.52-.537 2.14h-.202a19 19 0 0 0-.537-2.158l-1.619-4.752H60.92v.184l3.476 8.76h2.886l3.475-8.76v-.184H68.09zM77.523 14.16v.235c0 .516-.405 1.206-1.786 1.206-1.347 0-2.095-.751-2.095-2.525h6.344c.053-.419.114-1.056.114-1.52 0-2.008-1.566-3.45-4.32-3.45-3.273 0-4.707 2.044-4.707 4.656 0 2.961 1.584 4.656 4.655 4.656 3.713 0 4.302-1.861 4.302-2.883 0-.087-.017-.218-.035-.332zm-1.725-4.324c1.012 0 1.874.515 1.874 1.52 0 .052 0 .148-.017.236H73.72c.106-1.232.898-1.756 2.077-1.756M50.008 8.299h-1.803v2.078h1.803v6.866h2.649v-6.866h4.373v6.866h2.648V8.299h-7.021v-.472c0-1.153.22-1.765 1.953-1.765h5.068V3.914h-5.332c-3.246 0-4.338 1.04-4.338 4.385M31.945 8.298c-.44.97-1.285 1.477-2.596 1.477h-1.003v2.052h3.088v3.267h-3.088v2.149h8.904v-2.158h-3.088V8.298zM43.982 12.535c-1.197 0-2.191.419-2.684.82h-.15l.238-2.978h5.666V8.298H39.09l-.66 6.9h2.517c.352-.488 1.065-.951 1.97-.951 1.47 0 2.394.768 2.394 2.375 0 1.354-.845 2.359-2.261 2.359-1.654 0-2.209-1.022-2.209-1.992 0-.052 0-.113.018-.218l-2.701.052c-.018.053-.035.201-.035.332 0 2.044 1.53 3.922 5.006 3.922 2.921 0 5.06-1.72 5.06-4.49-.01-2.515-1.576-4.052-4.207-4.052" fill="#6B7860"></path></svg>