<svg viewBox="0 0 84 26" xmlns:xlink="http://www.w3.org/1999/xlink" xmlns="http://www.w3.org/2000/svg" width="84" height="26" fill="currentColor"><path d="M10.345 5.1v6.441H4.428v-6.44H1.62v15.375h2.808v-6.232h5.916v6.232h2.81V5.1zm11.797 10.406a2.323 2.323 0 1 1-4.648 0V8.92H14.83v6.586a4.983 4.983 0 0 0 9.966 0V8.92h-2.654zM41.88 9.6c0-1.35.893-1.779 1.87-1.779.79 0 1.83.6 2.513 1.329l1.744-2.057C47.136 5.914 45.37 5.1 43.923 5.1c-2.89 0-4.98 1.693-4.98 4.499 0 5.206 6.363 3.553 6.363 6.467 0 .899-.873 1.692-1.871 1.692-1.576 0-2.087-.77-2.81-1.584l-1.937 2.013c1.24 1.52 2.767 2.292 4.596 2.292 2.746 0 4.955-1.713 4.955-4.391 0-5.78-6.364-3.984-6.364-6.49m39.368 8.422c-1.574 0-2.022-.681-2.022-1.724v-4.617h2.448v-2.34H79.22V6.254l-2.7 1.212v9.405c0 2.405 1.66 3.617 3.935 3.617q.537.01 1.065-.085l.66-2.426c-.298.02-.64.041-.938.041m-48.961-9.02c-1.32 0-2.24.383-3.132 1.256v-5.06h-2.667v9.38c0 3.511 2.538 5.917 5.391 5.917 3.165 0 5.949-2.448 5.949-5.745 0-3.256-2.562-5.746-5.541-5.746m-.017 8.806a3.028 3.028 0 1 1 0-6.056 3.028 3.028 0 0 1 0 6.056m28.988-3.2c0-3.303-2.778-5.746-5.949-5.746-2.852 0-5.391 2.406-5.391 5.918v9.386h2.667v-5.068c.89.872 1.812 1.256 3.13 1.256 2.98 0 5.543-2.49 5.543-5.746m-2.526-.034a3.027 3.027 0 1 1-6.055 0 3.027 3.027 0 0 1 6.055 0" fill="#0A1D08"></path><path d="M69.873 8.73V6.05a2.06 2.06 0 0 0 1.19-1.86v-.062c0-1.14-.924-2.065-2.064-2.065h-.062a2.064 2.064 0 0 0-2.064 2.065v.061a2.06 2.06 0 0 0 1.19 1.86V8.73a5.85 5.85 0 0 0-2.78 1.224l-7.35-5.726q.079-.286.082-.58a2.324 2.324 0 1 0-2.328 2.322 2.3 2.3 0 0 0 1.145-.312l7.239 5.633a5.86 5.86 0 0 0 .09 6.605l-2.202 2.202a1.9 1.9 0 0 0-.55-.09 1.91 1.91 0 1 0 1.91 1.912 1.9 1.9 0 0 0-.089-.55l2.178-2.18a5.873 5.873 0 1 0 4.465-10.46m-.903 8.816a3.013 3.013 0 1 1 0-6.024 3.014 3.014 0 0 1 .003 6.023" fill="#0A1D08"></path></svg>