<svg viewBox="0 0 129 20" xmlns:xlink="http://www.w3.org/1999/xlink" xmlns="http://www.w3.org/2000/svg" width="129" height="20" fill="currentColor"><path d="M10.381 8.062a6.715 6.715 0 0 1 6.716-6.716v10.392a6.715 6.715 0 0 1-6.716 6.716zM8.89 12.039v6.415h-.301a6.415 6.415 0 0 1-6.415-6.415zM28.001 15.024c2.034 0 3.438-1.205 3.438-2.93V5.239H29.72v6.83c0 .862-.716 1.464-1.747 1.464-1.06 0-1.791-.548-1.791-1.341V10.85h-1.705v1.354c0 1.656 1.447 2.82 3.524 2.82M36.194 15.024c1.79 0 3.065-.945 3.452-2.505H38c-.258.726-.917 1.136-1.791 1.136-1.29 0-2.12-.862-2.235-2.135h5.702v-.383c-.043-2.354-1.476-3.791-3.625-3.791-2.12 0-3.767 1.478-3.767 3.873 0 2.217 1.59 3.805 3.91 3.805m-2.15-4.64c.259-1.04 1.004-1.67 2.006-1.67.989 0 1.662.63 1.877 1.67zM42.112 14.818v-3.585c0-1.369.93-2.176 2.507-2.176h.286V7.483h-.286c-1.261 0-2.15.52-2.636 1.505l-.2-1.423H40.42v7.253zM46.29 6.593c.63 0 1.088-.465 1.088-1.054 0-.588-.459-1.04-1.089-1.04-.616 0-1.089.452-1.089 1.04s.473 1.054 1.09 1.054m.844 8.225V7.565h-1.69v7.253zM51.809 15.024c2.02 0 3.38-1.177 3.581-3.052h-1.662c-.172 1.04-.888 1.67-1.92 1.67-1.26 0-2.206-.918-2.206-2.505 0-1.478.86-2.409 2.15-2.409 1.074 0 1.819.643 1.976 1.643h1.662c-.143-1.807-1.547-3.025-3.624-3.025-2.206 0-3.883 1.41-3.883 3.79 0 2.19 1.447 3.888 3.926 3.888M57.853 14.818v-4.393c.014-.944.759-1.67 1.905-1.67.902 0 1.461.534 1.461 1.342v4.721h1.69v-4.803c0-1.629-1.06-2.67-2.678-2.67-.989 0-1.863.398-2.378 1V4.554h-1.69v10.264zM67.45 15.024c2.264 0 3.883-1.451 3.883-3.9 0-2.136-1.433-3.778-3.883-3.778-2.22 0-3.896 1.41-3.896 3.777 0 2.245 1.432 3.9 3.896 3.9m0-1.383c-1.246 0-2.177-.93-2.177-2.518 0-1.437.86-2.395 2.177-2.395s2.163.958 2.163 2.395c0 1.45-.802 2.518-2.163 2.518M78.914 15.024c2.292 0 3.739-1.095 3.739-2.833 0-1.807-1.49-2.3-2.908-2.724l-1.519-.452c-.974-.3-1.848-.506-1.848-1.34 0-.74.716-1.178 1.82-1.178 1.504 0 2.335.726 2.406 1.807h1.748c-.13-2.026-1.676-3.271-4.097-3.271-2.22 0-3.582 1.15-3.582 2.723 0 1.875 1.834 2.368 3.008 2.71l1.634.466c.974.287 1.59.588 1.59 1.34 0 .808-.687 1.287-1.991 1.287-1.605 0-2.608-.657-2.765-1.697h-1.762c.129 1.902 1.891 3.162 4.527 3.162M86.94 15.024c1.791 0 3.067-.945 3.453-2.505h-1.647c-.258.726-.917 1.136-1.791 1.136-1.29 0-2.12-.862-2.235-2.135h5.702v-.383c-.043-2.354-1.476-3.791-3.624-3.791-2.121 0-3.768 1.478-3.768 3.873 0 2.217 1.59 3.805 3.91 3.805m-2.148-4.64c.258-1.04 1.003-1.67 2.005-1.67.99 0 1.662.63 1.877 1.67zM94.692 15.024c2.02 0 3.381-1.177 3.581-3.052h-1.661c-.173 1.04-.889 1.67-1.92 1.67-1.26 0-2.207-.918-2.207-2.505 0-1.478.86-2.409 2.15-2.409 1.074 0 1.819.643 1.977 1.643h1.661c-.143-1.807-1.547-3.025-3.624-3.025-2.206 0-3.883 1.41-3.883 3.79 0 2.19 1.447 3.888 3.925 3.888M101.738 15.024c1.061 0 1.963-.48 2.408-1.26l.129 1.054h1.36V7.565h-1.69v4.38c-.015.93-.702 1.655-1.862 1.655-.903 0-1.505-.479-1.505-1.3V7.565h-1.69v4.803c0 1.574 1.046 2.656 2.85 2.656M108.472 14.818v-3.585c0-1.369.932-2.176 2.507-2.176h.287V7.483h-.287c-1.26 0-2.148.52-2.636 1.505l-.2-1.423h-1.361v7.253zM112.65 6.593c.631 0 1.089-.465 1.089-1.054 0-.588-.458-1.04-1.089-1.04-.616 0-1.088.452-1.088 1.04s.472 1.054 1.088 1.054m.845 8.225V7.565h-1.69v7.253zM119 14.818V13.45h-.859c-.63 0-.96-.342-.96-.958V8.933h1.963V7.565h-1.963V5.088h-1.69v2.477h-1.333v1.368h1.333v3.668c0 1.437.888 2.217 2.536 2.217zM121.125 17.555c1.489 0 2.292-.52 2.678-1.491l3.31-8.5h-1.762l-2.135 5.502-2.178-5.501h-1.819l3.008 7.253h.316l-.301.767c-.143.383-.487.602-1.117.602h-1.375v1.368z" fill="#6B7860"></path></svg>