<svg viewBox="0 0 107 20" xmlns:xlink="http://www.w3.org/1999/xlink" xmlns="http://www.w3.org/2000/svg" width="107" height="20" fill="currentColor"><path fill-rule="evenodd" d="M14.573 3.025q.244-.566.544-1.1l.004.007c1.46.246 2.885.684 4.23 1.301 2.32 3.392 3.475 7.222 3.049 11.64a17 17 0 0 1-5.192 2.603 12.5 12.5 0 0 1-1.113-1.792c.61-.23 1.195-.507 1.755-.839a5 5 0 0 1-.43-.323 12.2 12.2 0 0 1-10.38 0l-.048.037q-.186.144-.381.286c.56.327 1.145.61 1.75.835-.318.626-.69 1.227-1.112 1.792a17 17 0 0 1-5.192-2.606c-.36-3.81.364-7.672 3.04-11.637a17 17 0 0 1 4.235-1.305c.2.356.384.724.544 1.1a15.9 15.9 0 0 1 4.697 0M6.97 10.47c0 1.134.838 2.05 1.85 2.05 1.03 0 1.828-.92 1.844-2.05s-.81-2.054-1.849-2.054c-1.04 0-1.845.921-1.845 2.054m6.82 0c0 1.134.83 2.05 1.846 2.05 1.03 0 1.829-.92 1.845-2.05s-.806-2.054-1.845-2.054c-1.04 0-1.846.921-1.846 2.054M39.165 4.77q-1.527-.69-3.736-.689h-6.106v10.963h5.668q2.396.003 4.015-.736a5.36 5.36 0 0 0 2.414-1.995c.527-.843.8-1.82.79-2.814a5.2 5.2 0 0 0-.761-2.81 5.03 5.03 0 0 0-2.284-1.919m-1.95 6.742q-.8.743-2.287.743h-1.69V6.868h1.91q1.438.003 2.154.714c.487.51.714 1.181.711 1.901.004.778-.252 1.5-.798 2.029" clip-rule="evenodd" fill="#0A1D08"></path><path d="M49.068 14.071c.71.431 1.48.753 2.286.955.852.22 1.728.33 2.608.329q2.296.003 3.532-.828a2.6 2.6 0 0 0 1.246-2.263q-.002-1.293-.751-1.964-.75-.671-2.275-.94l-1.566-.282a3.6 3.6 0 0 1-.837-.241.38.38 0 0 1-.223-.354q0-.5 1.471-.5c.669-.002 1.335.086 1.98.259a6.7 6.7 0 0 1 1.7.695v-2.46a6.8 6.8 0 0 0-1.816-.72 9.7 9.7 0 0 0-2.412-.282 8 8 0 0 0-2.568.369 3.83 3.83 0 0 0-1.69 1.04 2.32 2.32 0 0 0-.596 1.581c-.03.651.213 1.285.671 1.747q.678.665 2.293 1.04l1.88.423c.221.038.431.13.61.266a.53.53 0 0 1 .157.392c0 .13-.097.255-.289.353-.27.113-.562.164-.855.148a8.8 8.8 0 0 1-2.498-.383 6.2 6.2 0 0 1-2.058-.98zM60.411 12.908a4.7 4.7 0 0 0 2.03 1.79 7.4 7.4 0 0 0 3.258.662c1.401.03 2.783-.328 3.993-1.034v-2.774c-.41.24-.85.426-1.306.557-.501.15-1.021.225-1.544.224q-1.518 0-2.317-.54a1.599 1.599 0 0 1 .022-2.78q.823-.532 2.28-.532a5.07 5.07 0 0 1 2.84.846v-2.87q-1.55-.987-3.898-.987a7.7 7.7 0 0 0-3.257.635 4.73 4.73 0 0 0-2.067 1.745 4.6 4.6 0 0 0-.705 2.521 4.83 4.83 0 0 0 .671 2.537" fill="#0A1D08"></path><path fill-rule="evenodd" d="M71.497 12.908a4.87 4.87 0 0 0 2.07 1.79v-.005a8.12 8.12 0 0 0 6.404 0 4.8 4.8 0 0 0 2.058-1.79 4.76 4.76 0 0 0 .704-2.552 4.57 4.57 0 0 0-.704-2.52 4.75 4.75 0 0 0-2.052-1.723 8.54 8.54 0 0 0-6.42 0 4.8 4.8 0 0 0-2.06 1.731 4.53 4.53 0 0 0-.711 2.516 4.73 4.73 0 0 0 .711 2.553m7.4-2.501a2.04 2.04 0 0 1-.573 1.512 2.1 2.1 0 0 1-1.565.57 2.13 2.13 0 0 1-1.566-.57 2.05 2.05 0 0 1-.57-1.512 2 2 0 0 1 .57-1.494c.427-.387.99-.588 1.566-.557a2.13 2.13 0 0 1 1.565.557c.392.395.6.938.573 1.494" clip-rule="evenodd" fill="#0A1D08"></path><path d="M90.594 9.045a2.8 2.8 0 0 1 1.55.391V6.05a2.75 2.75 0 0 0-1.425-.375 2.38 2.38 0 0 0-1.79.76q-.698.758-1.01 2.356V5.882H84.16v9.16h3.837V12.16q0-1.597.67-2.356.673-.759 1.927-.76" fill="#0A1D08"></path><path fill-rule="evenodd" d="M99.573 14.747a3.64 3.64 0 0 0 1.481-1.763v2.058h3.836V3.768h-3.837V7.85q-.94-2.38-3.68-2.38A4.44 4.44 0 0 0 95 6.112a4.35 4.35 0 0 0-1.612 1.79c-.39.804-.58 1.69-.555 2.583a5.8 5.8 0 0 0 .523 2.499 4.16 4.16 0 0 0 1.508 1.738 4.05 4.05 0 0 0 2.27.633 4.66 4.66 0 0 0 2.439-.609m1.505-4.362a1.97 1.97 0 0 1-.588 1.48 2.14 2.14 0 0 1-1.566.562 2.1 2.1 0 0 1-1.535-.562 1.94 1.94 0 0 1-.586-1.46 1.91 1.91 0 0 1 .58-1.448 2.46 2.46 0 0 1 3.107 0c.391.37.605.89.588 1.428" clip-rule="evenodd" fill="#0A1D08"></path><path d="M47.357 5.14c0-.95-.857-1.719-1.913-1.719s-1.913.77-1.913 1.718c0 .949.857 1.718 1.913 1.718s1.913-.77 1.913-1.718M47.357 8.04a4.94 4.94 0 0 1-3.828 0v7.051h3.828z" fill="#0A1D08"></path></svg>