<svg viewBox="0 0 134 25" xmlns:xlink="http://www.w3.org/1999/xlink" xmlns="http://www.w3.org/2000/svg" width="134" height="25" fill="currentColor" aria-label="Discord"><path fill-rule="evenodd" d="M18.091 4.406q.306-.708.68-1.376l.005.01c1.826.307 3.606.854 5.289 1.626 2.9 4.24 4.342 9.027 3.81 14.551a21.3 21.3 0 0 1-6.49 3.253 15.6 15.6 0 0 1-1.391-2.24 14 14 0 0 0 2.194-1.049 7 7 0 0 1-.537-.404 15.24 15.24 0 0 1-12.976 0l-.06.047c-.155.118-.314.24-.477.357.701.41 1.432.762 2.19 1.043a15.6 15.6 0 0 1-1.392 2.24 21.3 21.3 0 0 1-6.49-3.257c-.45-4.762.455-9.59 3.8-14.546a21.4 21.4 0 0 1 5.293-1.631c.251.445.481.905.68 1.376a19.8 19.8 0 0 1 5.872 0m-9.503 9.308c0 1.417 1.049 2.562 2.312 2.562 1.289 0 2.286-1.15 2.307-2.562s-1.013-2.568-2.312-2.568c-1.3 0-2.307 1.151-2.307 2.568m8.526 0c0 1.417 1.038 2.562 2.307 2.562 1.289 0 2.286-1.15 2.306-2.562s-1.007-2.568-2.306-2.568-2.307 1.151-2.307 2.568M48.831 6.587q-1.91-.861-4.67-.861h-7.633V19.43h7.086q2.995.003 5.019-.92a6.7 6.7 0 0 0 3.017-2.494 6.5 6.5 0 0 0 .987-3.518 6.53 6.53 0 0 0-.95-3.512 6.3 6.3 0 0 0-2.856-2.399m-2.438 8.428q-.998.928-2.858.928h-2.113V9.21h2.388q1.797.004 2.692.892c.61.637.893 1.476.89 2.377.004.972-.316 1.874-.999 2.536" clip-rule="evenodd" fill="#0A1D08"></path><path d="M61.21 18.214c.887.539 1.85.941 2.857 1.193 1.066.275 2.161.413 3.26.412q2.87.002 4.416-1.035a3.25 3.25 0 0 0 1.557-2.83q-.003-1.616-.94-2.455-.936-.838-2.843-1.174l-1.957-.352q-.541-.089-1.046-.302a.47.47 0 0 1-.28-.442q0-.627 1.84-.627a9.5 9.5 0 0 1 2.475.325 8.4 8.4 0 0 1 2.125.87V8.72a8.5 8.5 0 0 0-2.27-.9 12 12 0 0 0-3.015-.353 10 10 0 0 0-3.21.461 4.8 4.8 0 0 0-2.114 1.3 2.9 2.9 0 0 0-.743 1.977 2.9 2.9 0 0 0 .838 2.184q.847.83 2.867 1.3l2.348.529c.278.046.54.16.764.333.13.129.2.306.195.489 0 .162-.12.319-.36.442a2.4 2.4 0 0 1-1.068.184 11 11 0 0 1-3.124-.478 7.8 7.8 0 0 1-2.572-1.225zM75.389 16.76a5.87 5.87 0 0 0 2.536 2.236 9.2 9.2 0 0 0 4.074.828 9.5 9.5 0 0 0 4.991-1.292v-3.467a7.2 7.2 0 0 1-1.633.696 6.7 6.7 0 0 1-1.93.28q-1.897 0-2.896-.674a2 2 0 0 1 .028-3.476q1.029-.665 2.85-.665a6.34 6.34 0 0 1 3.55 1.057V8.695q-1.937-1.233-4.873-1.233a9.6 9.6 0 0 0-4.071.794 5.9 5.9 0 0 0-2.584 2.181 5.77 5.77 0 0 0-.88 3.152 6.04 6.04 0 0 0 .838 3.17" fill="#0A1D08"></path><path fill-rule="evenodd" d="M89.247 16.76a6.1 6.1 0 0 0 2.586 2.236v-.005a10.15 10.15 0 0 0 8.005 0 6 6 0 0 0 2.573-2.237 5.96 5.96 0 0 0 .881-3.19 5.7 5.7 0 0 0-.881-3.152 5.95 5.95 0 0 0-2.564-2.153 10.67 10.67 0 0 0-8.025 0 6 6 0 0 0-2.575 2.164 5.67 5.67 0 0 0-.89 3.146 5.9 5.9 0 0 0 .89 3.19m9.25-3.127a2.55 2.55 0 0 1-.717 1.89 2.63 2.63 0 0 1-1.957.714 2.66 2.66 0 0 1-1.957-.713 2.56 2.56 0 0 1-.713-1.89 2.49 2.49 0 0 1 .713-1.868 2.7 2.7 0 0 1 1.957-.697 2.67 2.67 0 0 1 1.957.697c.49.494.75 1.172.716 1.867" clip-rule="evenodd" fill="#0A1D08"></path><path d="M113.117 11.93c.68-.029 1.354.141 1.938.49V8.187a3.43 3.43 0 0 0-1.781-.47c-.838-.009-1.667.322-2.237.95q-.873.948-1.264 2.945V7.977h-4.697v11.45h4.795v-3.601q0-1.997.839-2.945c.559-.632 1.364-.95 2.407-.95" fill="#0A1D08"></path><path fill-rule="evenodd" d="M124.341 19.058a4.54 4.54 0 0 0 1.851-2.203v2.572h4.795V5.335h-4.795v5.102q-1.177-2.975-4.6-2.975a5.55 5.55 0 0 0-2.966.803 5.4 5.4 0 0 0-2.016 2.237 6.95 6.95 0 0 0-.694 3.23 7.2 7.2 0 0 0 .654 3.123 5.2 5.2 0 0 0 1.885 2.172c.847.54 1.835.815 2.838.791a5.8 5.8 0 0 0 3.048-.76m1.882-5.453a2.47 2.47 0 0 1-.736 1.851 2.67 2.67 0 0 1-1.957.702 2.63 2.63 0 0 1-1.918-.702 2.42 2.42 0 0 1-.733-1.825 2.4 2.4 0 0 1 .724-1.81 3.076 3.076 0 0 1 3.884 0c.489.463.757 1.112.736 1.784" clip-rule="evenodd" fill="#0A1D08"></path><path d="M59.07 7.049C59.07 5.863 58 4.9 56.68 4.9s-2.39.962-2.39 2.148 1.07 2.147 2.39 2.147 2.39-.961 2.39-2.147M59.07 10.675a6.17 6.17 0 0 1-4.783 0v8.813h4.784z" fill="#0A1D08"></path></svg>