<svg viewBox="0 0 94 27" xmlns:xlink="http://www.w3.org/1999/xlink" xmlns="http://www.w3.org/2000/svg" width="94" height="27" fill="currentColor"><path d="M16.878 18.118c-.18-.143-.25-.25-.09-.537l.645-1.11a.413.413 0 0 1 .608-.124c.735.555 1.54 1.11 2.703 1.11.93 0 1.628-.609 1.628-1.378 0-.912-.769-1.54-2.273-2.148-1.68-.682-3.365-1.754-3.365-3.866 0-1.594 1.18-3.436 4.027-3.436 1.825 0 3.222.932 3.58 1.2.18.107.233.41.106.591l-.681 1.02c-.144.213-.411.357-.625.213-.769-.484-1.504-.985-2.487-.985s-1.574.571-1.574 1.253c0 .842.662 1.414 2.112 2.005 1.738.698 3.74 1.735 3.74 4.044 0 1.844-1.594 3.542-4.117 3.542-2.256 0-3.419-.949-3.937-1.396M30.068 8.955h-2.737a.34.34 0 0 1-.34-.34V7.146c0-.18.143-.34.34-.34h7.82c.197 0 .34.16.34.34v1.467a.34.34 0 0 1-.34.341h-2.737v10.039c0 .18-.16.34-.34.34h-1.665c-.18 0-.34-.16-.34-.34zM36.1 18.87l5.567-12.044c.054-.107.144-.197.304-.197h.178c.18 0 .25.09.304.197l5.514 12.044c.107.234-.037.465-.304.465h-1.558c-.267 0-.394-.107-.518-.358l-.876-1.932h-5.35l-.876 1.932a.54.54 0 0 1-.518.358H36.41c-.268 0-.411-.234-.304-.465m7.727-3.813-1.788-3.936h-.054l-1.754 3.936zM51.653 8.955h-2.737a.34.34 0 0 1-.341-.34V7.146c0-.18.143-.34.34-.34h7.82c.198 0 .341.16.341.34v1.467a.34.34 0 0 1-.34.341h-2.738v10.039c0 .18-.16.34-.34.34h-1.665c-.18 0-.34-.16-.34-.34zM59.96 7.147c0-.177.144-.34.34-.34h7.286c.197 0 .34.16.34.34v1.467c0 .178-.143.341-.34.341h-5.297v3.365h4.421c.18 0 .34.16.34.34v1.468c0 .18-.16.34-.34.34h-4.421v4.529c0 .177-.16.34-.34.34H60.3a.34.34 0 0 1-.341-.34zM70.824 7.147c0-.177.144-.34.34-.34h1.648c.178 0 .34.16.34.34v10.04h4.566c.197 0 .34.16.34.34v1.467c0 .177-.143.34-.34.34h-6.55a.34.34 0 0 1-.341-.34V7.147zM86.126 6.626c3.58 0 6.443 2.88 6.443 6.46s-2.864 6.426-6.443 6.426a6.39 6.39 0 0 1-6.426-6.426c0-3.58 2.844-6.46 6.426-6.46m0 10.56c2.256 0 4.117-1.844 4.117-4.097s-1.861-4.134-4.117-4.134c-2.255 0-4.097 1.878-4.097 4.134a4.11 4.11 0 0 0 4.097 4.097" fill="#6B7860"></path><path fill-opacity="0.3" d="M5.715 1.473 1.773 5.415l3.942 3.942 3.942-3.942z" fill="#6B7860"></path><path fill-opacity="0.6" d="m1.774 13.3 3.942-3.942-3.942-3.943z" fill="#6B7860"></path><path d="M5.716 9.359 1.774 13.3l3.942 3.942L9.658 13.3z" fill="#6B7860"></path><path fill-opacity="0.6" d="m5.716 17.242 3.943 3.943V13.3z" fill="#6B7860"></path><path fill-opacity="0.3" d="m5.717 17.244-3.942 3.942 3.942 3.942 3.942-3.942z" fill="#6B7860"></path></svg>