<svg viewBox="0 0 54 24" xmlns:xlink="http://www.w3.org/1999/xlink" xmlns="http://www.w3.org/2000/svg" width="54" height="24" fill="currentColor"><path d="m9.4 8.349.21 4.512h-.476q-.855-2.009-1.77-2.744-.918-.736-1.828-.736-.574 0-.98.389-.405.39-.406.899 0 .381.28.735.449.58 2.506 1.987 2.058 1.409 2.709 2.391.65.983.65 2.2 0 1.103-.545 2.164a3.86 3.86 0 0 1-1.54 1.627 4.4 4.4 0 0 1-2.198.566q-.938-.001-2.506-.595-.42-.156-.573-.156-.463.001-.77.707H1.7l-.225-4.752h.476q.63 1.868 1.73 2.8 1.098.935 2.078.935.672 0 1.1-.418.425-.419.426-1.011 0-.679-.42-1.175-.42-.495-1.876-1.499-2.141-1.5-2.772-2.291-.923-1.16-.923-2.56 0-1.529 1.043-2.766T5.354 8.32q1.064 0 2.058.524.379.212.615.212a.7.7 0 0 0 .407-.106q.153-.106.49-.601zM22.519 14.855h-7.182q.127 2.63 1.387 4.16.966 1.173 2.323 1.173.84 0 1.526-.473.686-.475 1.47-1.705l.476.31q-1.065 2.194-2.352 3.106-1.287.913-2.982.913-2.91 0-4.41-2.263-1.203-1.825-1.203-4.527 0-3.311 1.771-5.27t4.15-1.959q1.987 0 3.451 1.648 1.463 1.65 1.575 4.887m-3.444-.947q0-2.277-.245-3.127-.244-.848-.762-1.286-.294-.255-.785-.255-.728 0-1.19.722-.825 1.258-.825 3.45v.495zM28.218 8.954v3Q29.52 9.901 30.5 9.23t1.89-.672q.784 0 1.253.489.47.486.47 1.378 0 .949-.456 1.472-.455.522-1.099.522-.741 0-1.288-.48-.546-.482-.643-.537a.6.6 0 0 0-.323-.086q-.405 0-.77.311-.574.482-.868 1.373-.447 1.372-.448 3.027v3.04l.015.794q0 .805.098 1.032.167.381.497.559.328.176 1.113.22v.508h-7.07v-.509q.854-.071 1.155-.474.3-.404.3-2.13v-7.312q0-1.132-.11-1.443-.142-.396-.407-.58-.267-.184-.937-.254v-.524zM37.632 12.611c.698 0 1.367.28 1.861.779.493.498.77 1.174.77 1.88v4.166q0 1.4.322 1.789.322.39 1.26.446v.509h-7.07v-.509q.87-.03 1.288-.509.281-.326.281-1.726v-4.067q0-1.4-.322-1.79-.322-.388-1.246-.445v-.523zM47.664 10.34v9.18q0 1.332.28 1.67.449.524 1.651.481v.509h-7.75v-.509c.588-.01 1.043-.078 1.29-.205a1.04 1.04 0 0 0 .512-.53q.14-.34.14-1.416v-9.18h-1.905V8.955h1.904v-.975l-.014-.666q0-2.037 1.477-3.395t3.996-1.358q1.722 0 2.556.652.832.65.832 1.442 0 .636-.517 1.104-.518.467-1.373.467-.728 0-1.154-.383-.427-.382-.427-.849.001-.127.083-.522a2 2 0 0 0 .056-.453q0-.298-.167-.44a.77.77 0 0 0-.546-.212.84.84 0 0 0-.68.34q-.271.34-.272 1.09l.028 2.475v1.683h1.931v1.387z" fill="#6B7860"></path><path fill-rule="evenodd" d="M39.756 6.643c.08-.023.178.01.25.083s.105.172.082.253l-.25.894a3.3 3.3 0 0 0 .222 2.35l.6 1.211c.045.09.037.184-.018.24-.056.056-.15.064-.238.019l-1.198-.607a3.2 3.2 0 0 0-2.326-.223l-.885.252c-.08.023-.178-.01-.25-.083s-.105-.172-.083-.253l.25-.894a3.3 3.3 0 0 0-.221-2.35l-.6-1.211c-.045-.09-.038-.184.018-.24.056-.057.15-.064.237-.02l1.198.607c.721.365 1.55.445 2.327.224z" clip-rule="evenodd" fill="#6B7860"></path></svg>