<svg viewBox="0 0 106 28" xmlns:xlink="http://www.w3.org/1999/xlink" xmlns="http://www.w3.org/2000/svg" width="106" height="28" fill="currentColor"><path d="M104.266 16.2H97.27c.14 1.621 1.233 2.414 2.396 2.414.758 0 1.498-.264 1.992-1.092h2.502c-.511 1.41-1.885 2.978-4.476 2.978-3.049 0-4.828-2.273-4.828-5.005 0-2.82 1.956-4.916 4.758-4.916 2.925 0 4.74 2.273 4.652 5.621m-4.67-3.842c-.916 0-2.097.564-2.29 2.168h4.493c-.053-1.604-1.181-2.168-2.203-2.168M90.999 20.271v-5.516c0-1.04-.089-2.22-1.516-2.22-1.621 0-1.886 1.357-1.886 2.802v4.934h-2.431v-5.516c0-1.04-.088-2.22-1.516-2.22-1.621 0-1.886 1.357-1.886 2.802v4.934h-2.431v-9.48h2.431v1.25c.547-.934 1.498-1.462 2.644-1.462 1.603 0 2.326.863 2.696 1.55.758-1.057 1.692-1.55 3.12-1.55 2.378 0 3.206 1.48 3.206 3.718v5.974zM74.943 16.642v-.705c-2.731.282-3.806.6-3.806 1.656 0 .688.528 1.252 1.639 1.252 1.533 0 2.167-.81 2.167-2.203m.212 2.45c-.687.986-1.674 1.41-3.102 1.41-1.815 0-3.418-1.058-3.418-2.785 0-2.238 2.502-2.908 6.238-3.33v-.16c0-1.462-.793-1.973-1.78-1.973-.934 0-1.71.476-1.762 1.533h-2.273c.193-1.868 1.709-3.242 4.158-3.242 2.238 0 4.089.987 4.089 4.176 0 .282-.036 1.569-.036 2.414 0 1.498.088 2.344.282 3.137h-2.238c-.07-.3-.105-.705-.158-1.18M68.12 10.843v2.291c-.352-.053-.652-.053-1.004-.053-1.198 0-1.991.441-1.991 2.22v4.97h-2.432v-9.48h2.396v1.656c.547-1.18 1.393-1.639 2.503-1.639.158 0 .37.018.529.035M57.119 10.79v-.528c0-2.397 1.127-2.767 3.507-2.767h.828v1.798h-.476c-1.198 0-1.427.14-1.427 1.04v.458h1.903v1.674H59.55v7.806h-2.432v-7.806h-1.34V10.79zM50.326 12.482c-1.34 0-2.291 1.075-2.291 3.066 0 1.992.952 3.049 2.29 3.049 1.34 0 2.292-1.058 2.292-3.049s-.952-3.066-2.291-3.066m0 8.018c-2.397 0-4.758-1.639-4.758-4.952 0-3.33 2.361-4.97 4.758-4.97s4.758 1.64 4.758 4.97c0 3.313-2.361 4.952-4.758 4.952M42.003 16.078H44.4c-.335 2.59-2.485 4.423-5.533 4.423-3.807 0-5.974-2.59-5.974-6.68 0-4.035 2.326-6.555 6.044-6.555 2.996 0 5.04 1.71 5.463 4.37h-2.397c-.475-1.78-1.674-2.36-3.083-2.36-1.921 0-3.42 1.585-3.42 4.546 0 3.048 1.499 4.67 3.331 4.67 1.516 0 2.75-.67 3.172-2.415" fill="#6B7860"></path><path fill-opacity="0.4" d="M12.158 3.346 3.739 8.957c-1.162.775-2.104 2.535-2.104 3.932v7.387c0 1.396.942 1.9 2.104 1.126l8.419-5.611c1.162-.775 2.104-2.535 2.104-3.932V4.472c0-1.396-.942-1.9-2.104-1.126" fill="#6B7860"></path><path d="m21.01 6.797-8.418 5.612c-1.162.774-2.104 2.534-2.104 3.931v7.387c0 1.397.942 1.901 2.104 1.127l8.419-5.612c1.162-.774 2.104-2.535 2.104-3.931V7.924c0-1.397-.942-1.901-2.104-1.127" fill="#6B7860"></path></svg>