<svg viewBox="0 0 103 21" xmlns:xlink="http://www.w3.org/1999/xlink" xmlns="http://www.w3.org/2000/svg" width="103" height="21" fill="currentColor"><path fill-rule="evenodd" d="M56.743 14.98q.01 1.92 2.893 1.92a4 4 0 0 0 1.101-.139q.491-.139 1.02-.543.53-.405.823-1.334.293-.93.293-2.305 0-2.124-.811-3.084-.813-.96-2.628-.96a7.1 7.1 0 0 0-2.691.545v5.902zm-1.585-.09V3.061h1.584V7.49a8.4 8.4 0 0 1 2.692-.445q.75 0 1.408.128.658.129 1.338.504c.449.245.846.573 1.173.965q.493.588.796 1.603.307 1.012.306 2.331 0 1.443-.337 2.525-.338 1.083-.83 1.682c-.328.398-.73.729-1.184.973q-.69.373-1.275.48-.584.107-1.194.108-1.19 0-2.067-.295-.879-.296-1.318-.678a3.1 3.1 0 0 1-.713-.92q-.273-.535-.326-.883a4.4 4.4 0 0 1-.054-.68zm-30.96 1.046q1.251.877 2.696.877c.963 0 1.706-.243 2.144-.733q.659-.735.658-2.401V3.557h1.584v10.25q0 1.337-.374 2.284-.375.946-1.022 1.407a4.3 4.3 0 0 1-1.327.652q-.68.194-1.46.194a5.74 5.74 0 0 1-2.9-.76zM34.44 13.57V7.238h1.584v6.404q0 1.665.726 2.44.727.774 2.275.774c1.032 0 1.772-.258 2.263-.774q.737-.775.737-2.44V7.238h1.582v6.333q0 2.278-1.197 3.526t-3.387 1.247q-2.189 0-3.387-1.247-1.197-1.245-1.197-3.526zm12.322-5.6q-.957.927-.956 2.236 0 1.05.603 1.7.605.648 1.472.921.86.271 1.733.504.867.23 1.465.692.599.46.599 1.277.001 1.513-2.494 1.512-1.67 0-3.242-.966v1.671q1.487.825 3.306.824c1.211 0 2.238-.27 2.947-.81q1.065-.807 1.065-2.233 0-1.19-.605-1.958a3.3 3.3 0 0 0-1.472-1.088 19 19 0 0 0-1.733-.551q-.867-.23-1.465-.58-.599-.349-.599-.917 0-1.673 2.471-1.673 1.38 0 2.633.751V7.71q-1.401-.663-2.804-.664-1.97.001-2.925.926zM66.88 8.1v10.07h1.584V9.123a15.7 15.7 0 0 1 3.724-.57V7.066q-2.835 0-5.306 1.035zm7.765 6.713q0 2.043 2.97 2.043h.032q2.904 0 2.905-1.98V12.78q-.728-.128-1.944-.128-3.962 0-3.962 2.16zm-1.584 0q0-.738.272-1.321.273-.586.669-.948.395-.364 1.006-.62a8 8 0 0 1 1.08-.379q.47-.121 1.118-.184.647-.063.92-.074.323-.012.648-.011l1.755.104q0-1.489-.806-2.124-.807-.635-2.387-.635-1.775 0-3.198.524v-1.53a9.9 9.9 0 0 1 3.282-.567q2.298 0 3.505 1.161 1.209 1.162 1.21 3.396v3.284q0 1.048-.487 1.793a2.83 2.83 0 0 1-1.25 1.076q-.765.33-1.432.459a7 7 0 0 1-1.32.128q-.503.001-1.034-.065a6 6 0 0 1-1.199-.294 4.4 4.4 0 0 1-1.162-.591q-.492-.36-.842-1.03-.346-.67-.348-1.55zm11.913-6.841q-.957.925-.957 2.235 0 1.05.604 1.7.603.648 1.472.921.86.271 1.732.504.867.23 1.466.692.598.46.598 1.277 0 1.513-2.493 1.512-1.669 0-3.242-.966v1.671q1.487.825 3.306.824c1.211 0 2.238-.27 2.947-.81q1.065-.807 1.065-2.233 0-1.19-.605-1.958a3.3 3.3 0 0 0-1.472-1.088 19 19 0 0 0-1.733-.551q-.867-.23-1.465-.58-.6-.349-.599-.917 0-1.673 2.471-1.673 1.38 0 2.633.751V7.71q-1.403-.663-2.804-.664-1.967.001-2.925.926zm8.644 10.2h1.584V7.239h-1.584zm-.085-12.86h1.755V3.557h-1.755zm6.418 12.86h-1.584V3.077h1.584z" clip-rule="evenodd" fill="#0A1D08"></path><path fill-opacity="0.8" d="m11.162 10.248 3.903 6.735a2.664 2.664 0 0 0 3.632.97 2.643 2.643 0 0 0 .972-3.62L13.51 3.702c.417.78.432 1.75-.044 2.571z" fill="#0A1D08"></path><path fill-opacity="0.3" d="M2.657 14.333a2.644 2.644 0 0 0 .973 3.62l-.002-.002a2.665 2.665 0 0 0 3.634-.97l3.9-6.733L8.86 6.275a2.64 2.64 0 0 1-.015-2.624z" fill="#0A1D08"></path><path fill-opacity="0.55" d="M13.51 3.702c.416.78.431 1.75-.045 2.571l-2.303 3.975L8.86 6.275a2.64 2.64 0 0 1-.015-2.624l.015-.026a2.66 2.66 0 0 1 4.605 0z" fill="#0A1D08"></path></svg>