<svg xmlns:xlink="http://www.w3.org/1999/xlink" xmlns="http://www.w3.org/2000/svg" fill="currentColor" viewBox="0 0 100 100" class="text-desert-700" aria-label="GDPR Compliant" width="100"  height="100" ><path d="m39.959 54.204-.196-.896c-.182.406-.938 1.092-2.156 1.092-1.008 0-1.722-.266-2.282-.756-.882-.728-1.288-1.946-1.288-3.444 0-1.246.378-2.394 1.092-3.164.658-.686 1.568-1.036 2.73-1.036 1.652 0 3.01.938 3.234 2.66h-1.764c-.154-.798-.742-1.134-1.54-1.134-.63 0-1.12.21-1.442.644-.378.504-.532 1.246-.532 2.03 0 .882.14 1.638.574 2.128.294.35.7.546 1.358.546.938 0 1.554-.588 1.624-1.54h-1.764v-1.302h3.5v4.172zM42.788 46.154h3.052c1.246 0 2.198.364 2.828 1.078.588.686.882 1.68.882 2.954 0 1.288-.294 2.268-.868 2.926-.616.728-1.568 1.092-2.842 1.092h-3.052zm1.75 1.456v5.152h1.092c.798 0 1.358-.238 1.708-.714.336-.448.476-1.078.476-1.862 0-.91-.168-1.582-.602-2.016-.35-.378-.868-.56-1.582-.56zM57.56 48.646c0 1.4-.896 2.506-2.954 2.506h-1.834v3.052H51.05v-8.05h3.556c2.058 0 2.954 1.106 2.954 2.492m-1.764.014c0-.658-.322-1.092-1.344-1.092h-1.68v2.17h1.68c1.022 0 1.344-.42 1.344-1.078M63.848 54.204l-1.442-2.94h-1.33v2.94h-1.764v-8.05h3.458c1.834 0 2.982.924 2.982 2.548 0 1.134-.546 1.904-1.624 2.296l1.624 3.206zm.154-5.502c0-.658-.462-1.134-1.302-1.134h-1.638v2.254h1.666c.854 0 1.274-.49 1.274-1.12M50 9l1.347 4.146h4.36l-3.527 2.562 1.347 4.146L50 17.292l-3.527 2.562 1.347-4.146-3.526-2.562h4.359zM50 79l1.347 4.146h4.36l-3.527 2.562 1.347 4.146L50 87.292l-3.527 2.562 1.347-4.146-3.526-2.562h4.359zM67.5 13.689l1.347 4.146h4.36l-3.527 2.562 1.347 4.146-3.527-2.562-3.527 2.562 1.347-4.146-3.526-2.562h4.359zM32.5 74.31l1.347 4.146h4.36L34.68 81.02l1.347 4.146-3.527-2.563-3.527 2.563 1.347-4.146-3.526-2.563h4.359zM80.311 26.5l1.347 4.146h4.36l-3.527 2.562 1.347 4.146-3.527-2.562-3.527 2.562 1.347-4.146-3.526-2.562h4.359zM19.69 61.5l1.346 4.146h4.36l-3.527 2.562 1.347 4.146-3.527-2.562-3.527 2.562 1.348-4.146-3.527-2.562h4.359zM85 44l1.347 4.146h4.36l-3.527 2.562 1.347 4.146L85 52.292l-3.527 2.562 1.347-4.146-3.526-2.562h4.36zM15 44l1.347 4.146h4.36l-3.527 2.562 1.347 4.146L15 52.292l-3.527 2.562 1.347-4.146-3.526-2.562h4.36zM80.311 61.5l1.347 4.146h4.36l-3.527 2.562 1.347 4.146-3.527-2.562-3.527 2.562 1.347-4.146-3.526-2.562h4.359zM19.69 26.5l1.346 4.146h4.36l-3.527 2.562 1.347 4.146-3.527-2.562-3.526 2.562 1.347-4.146-3.527-2.562h4.36zM67.5 74.311l1.347 4.146h4.36l-3.527 2.562 1.347 4.146-3.527-2.562-3.527 2.562 1.347-4.146-3.526-2.562h4.36zM32.5 13.69l1.347 4.145h4.36l-3.527 2.563 1.347 4.146L32.5 21.98l-3.527 2.563 1.348-4.146-3.527-2.563h4.36z" fill="#4A3212"></path></svg>