<svg viewBox="0 0 128 33" xmlns:xlink="http://www.w3.org/1999/xlink" xmlns="http://www.w3.org/2000/svg" width="128" height="33" fill="currentColor" aria-label="Reforge"><path d="M116.751 17.72h7.149c-.202-1.978-1.35-3.297-3.502-3.297-2.01 0-3.274 1.29-3.647 3.297m3.647 8.514c-4.365 0-6.604-3.21-6.604-7.138s2.584-7.139 6.66-7.139 6.345 3.154 6.345 6.766c0 .43-.028 1.032-.086 1.29h-10.048c.143 2.208 1.378 3.756 3.588 3.756 1.81 0 2.9-.832 3.36-2.437h2.928c-.66 2.895-2.613 4.902-6.143 4.902m-22.164-7.253c0-4.128 2.526-7.024 6.259-7.024 2.555 0 4.22 1.491 4.851 3.498.029.086.115.086.115 0v-3.268h2.699v12.098c0 4.3-2.383 7.195-7.12 7.195-3.675 0-6-1.863-6.344-4.615h2.928c.229 1.147 1.091 2.15 3.473 2.15 3.015 0 4.307-1.892 4.364-4.644l.029-1.75c0-.085-.086-.085-.115 0-.66 2.094-2.526 3.384-4.88 3.384-3.733 0-6.259-2.896-6.259-7.024m10.88 0c0-2.638-1.578-4.558-4.019-4.558-2.727 0-3.99 1.92-3.99 4.558s1.263 4.558 3.99 4.558c2.441 0 4.019-1.95 4.019-4.558m-18.89-6.794h2.555l-.029 3.268c0 .086.087.086.115 0 .719-2.064 1.637-3.498 4.852-3.498v2.724c-3.646-.115-4.737 1.92-4.737 4.787v6.565h-2.756zM77.88 19.096c0 2.637 1.292 4.673 3.847 4.673s3.847-2.036 3.847-4.673-1.292-4.673-3.847-4.673-3.847 2.035-3.847 4.673m10.623 0c0 3.956-2.555 7.138-6.776 7.138-4.22 0-6.775-3.182-6.775-7.138s2.555-7.139 6.775-7.139 6.776 3.182 6.776 7.139m-20.614 6.937V14.566h-2.124v-2.38h2.182v-.343c0-3.326 1.837-5.304 6.546-5.075v2.61c-2.929-.288-3.847.744-3.847 2.809h3.847v2.38h-3.847v11.466zM54.943 17.72h7.148c-.2-1.978-1.35-3.297-3.502-3.297-2.01 0-3.273 1.29-3.646 3.297m3.646 8.514c-4.364 0-6.603-3.21-6.603-7.138s2.584-7.139 6.66-7.139 6.345 3.154 6.345 6.766c0 .43-.029 1.032-.086 1.29H54.857c.143 2.208 1.377 3.756 3.588 3.756 1.809 0 2.9-.832 3.36-2.437h2.927c-.66 2.895-2.612 4.902-6.143 4.902m-19.321-9.747h3.961c2.814 0 4.393-1.204 4.393-3.526 0-2.093-1.148-3.297-4.192-3.297h-4.163zm-2.958 9.546V7.141h7.034c5.082 0 7.235 2.179 7.235 5.533 0 2.494-1.58 4.874-5.483 5.046-.087 0-.087.114 0 .114 4.048.459 6.172 3.928 6.172 8.2h-3.1c0-3.785-1.666-7.024-5.714-7.024h-3.187v7.023zM5.05 6.93c-.073-.03-.055-.137.023-.141 1.914-.111 3.84.03 4.98.278 2.025.441 3.848 1.231 5.105 3.16.54.828.932 1.741 1.056 2.68a.1.1 0 0 1-.1.114H9.27a.1.1 0 0 1-.1-.094c-.147-2.194-1.336-4.835-4.12-5.997M22.942 25.85c.072.03.054.136-.024.14-1.913.112-3.84-.03-4.98-.278-2.025-.441-3.848-1.23-5.105-3.16-.539-.828-.931-1.741-1.055-2.68a.1.1 0 0 1 .1-.114h6.843a.1.1 0 0 1 .102.094c.145 2.194 1.334 4.835 4.119 5.997M8.723 13.667c.043-.06-.019-.139-.088-.11-1.648.668-8.82 4.065-7.354 8.68 1.29 4.02 8.143 3.852 9.724 3.757.079-.004.096-.11.024-.14-2.829-1.179-4.013-3.88-4.13-6.08-.083-1.593.332-4.03 1.824-6.107M19.284 19.111c-.044.06.019.14.088.111 1.648-.668 8.82-4.066 7.354-8.681-1.29-4.02-8.143-3.851-9.724-3.757-.079.004-.097.11-.024.14 2.83 1.179 4.013 3.88 4.13 6.08.084 1.593-.332 4.03-1.824 6.107" fill="#0A1D08"></path></svg>